<?xml version="1.0" encoding="utf-8"?>
<!-- Generator: Adobe Illustrator 15.1.0, SVG Export Plug-In . SVG Version: 6.00 Build 0)  -->
<!DOCTYPE svg PUBLIC "-//W3C//DTD SVG 1.1//EN" "http://www.w3.org/Graphics/SVG/1.1/DTD/svg11.dtd">
<svg version="1.1" id="Layer_1" xmlns="http://www.w3.org/2000/svg" xmlns:xlink="http://www.w3.org/1999/xlink" x="0px" y="0px"
	 width="841.891px" height="595.281px" viewBox="0 0 841.891 595.281" enable-background="new 0 0 841.891 595.281"
	 xml:space="preserve">
<g>
	<g enable-background="new    ">
		<path fill="#D31245" d="M485.92,332.838l-16.332,53.061h-5.963l-16.332-53.061h8.545l10.787,36.729l10.825-36.729H485.92z"/>
	</g>
	<g enable-background="new    ">
		<path fill="#D31245" d="M498.758,385.899h-8.166v-53.137h8.166V385.899z"/>
	</g>
	<g enable-background="new    ">
		<path fill="#D31245" d="M539.248,349.094h-8.166c-0.076-1.52-0.418-2.887-1.025-4.102c-0.254-0.507-0.576-1.007-0.969-1.501
			c-0.393-0.493-0.881-0.93-1.463-1.31s-1.26-0.685-2.031-0.912c-0.773-0.228-1.678-0.342-2.716-0.342
			c-1.013,0-1.905,0.114-2.678,0.342s-1.45,0.532-2.032,0.912s-1.07,0.816-1.463,1.31c-0.393,0.494-0.715,0.994-0.968,1.501
			c-0.608,1.215-0.95,2.582-1.026,4.102v20.473c0.076,1.494,0.418,2.849,1.026,4.063c0.253,0.507,0.575,1.007,0.968,1.501
			c0.393,0.493,0.881,0.931,1.463,1.311c0.582,0.379,1.26,0.689,2.032,0.93c0.772,0.241,1.665,0.361,2.678,0.361
			c1.038,0,1.942-0.12,2.716-0.361c0.771-0.24,1.449-0.551,2.031-0.93c0.582-0.38,1.07-0.817,1.463-1.311
			c0.393-0.494,0.715-0.994,0.969-1.501c0.607-1.215,0.949-2.569,1.025-4.063h8.166c-0.152,3.038-0.836,5.761-2.051,8.166
			c-0.508,1.013-1.152,2.013-1.938,3c-0.785,0.988-1.754,1.861-2.905,2.621c-1.153,0.76-2.507,1.374-4.064,1.842
			c-1.558,0.47-3.361,0.703-5.412,0.703c-2.052,0-3.85-0.233-5.394-0.703c-1.545-0.468-2.893-1.082-4.045-1.842
			s-2.121-1.633-2.906-2.621c-0.785-0.987-1.43-1.987-1.937-3c-1.216-2.405-1.899-5.128-2.052-8.166v-20.473
			c0.152-3.038,0.836-5.76,2.052-8.166c0.507-1.038,1.151-2.044,1.937-3.02c0.785-0.975,1.754-1.842,2.906-2.602
			s2.5-1.373,4.045-1.842c1.544-0.469,3.342-0.703,5.394-0.703c2.051,0,3.854,0.234,5.412,0.703s2.911,1.082,4.064,1.842
			c1.151,0.76,2.12,1.627,2.905,2.602c0.785,0.976,1.43,1.981,1.938,3.02C538.412,343.334,539.095,346.056,539.248,349.094z"/>
		<path fill="#D31245" d="M573.849,332.838v8.166h-12.307v44.895h-8.166v-44.895h-12.191v-8.166H573.849z"/>
	</g>
	<g enable-background="new    ">
		<path fill="#D31245" d="M593.259,332.762c2.051,0,3.854,0.234,5.412,0.703s2.911,1.082,4.064,1.842
			c1.151,0.76,2.12,1.627,2.905,2.602c0.785,0.976,1.43,1.981,1.938,3.02c1.215,2.406,1.898,5.128,2.051,8.166v20.473
			c-0.152,3.038-0.836,5.761-2.051,8.166c-0.508,1.013-1.152,2.013-1.938,3c-0.785,0.988-1.754,1.861-2.905,2.621
			c-1.153,0.76-2.507,1.374-4.064,1.842c-1.558,0.47-3.361,0.703-5.412,0.703c-2.052,0-3.85-0.233-5.394-0.703
			c-1.545-0.468-2.893-1.082-4.045-1.842s-2.121-1.633-2.906-2.621c-0.785-0.987-1.43-1.987-1.937-3
			c-1.216-2.405-1.899-5.128-2.052-8.166v-20.473c0.152-3.038,0.836-5.76,2.052-8.166c0.507-1.038,1.151-2.044,1.937-3.02
			c0.785-0.975,1.754-1.842,2.906-2.602s2.5-1.373,4.045-1.842C589.409,332.997,591.207,332.762,593.259,332.762z M601.463,349.094
			c-0.076-1.52-0.418-2.887-1.025-4.102c-0.254-0.507-0.576-1.007-0.969-1.501c-0.393-0.493-0.881-0.93-1.463-1.31
			s-1.26-0.685-2.031-0.912c-0.773-0.228-1.678-0.342-2.716-0.342c-1.013,0-1.905,0.114-2.678,0.342s-1.45,0.532-2.032,0.912
			s-1.07,0.816-1.463,1.31c-0.393,0.494-0.715,0.994-0.968,1.501c-0.608,1.215-0.95,2.582-1.026,4.102v20.473
			c0.076,1.494,0.418,2.849,1.026,4.063c0.253,0.507,0.575,1.007,0.968,1.501c0.393,0.493,0.881,0.931,1.463,1.311
			c0.582,0.379,1.26,0.689,2.032,0.93c0.772,0.241,1.665,0.361,2.678,0.361c1.038,0,1.942-0.12,2.716-0.361
			c0.771-0.24,1.449-0.551,2.031-0.93c0.582-0.38,1.07-0.817,1.463-1.311c0.393-0.494,0.715-0.994,0.969-1.501
			c0.607-1.215,0.949-2.569,1.025-4.063V349.094z"/>
	</g>
	<g enable-background="new    ">
		<path fill="#D31245" d="M648.525,349.17c0,2.659-0.387,4.906-1.158,6.742c-0.773,1.836-1.748,3.355-2.926,4.558
			c-1.177,1.203-2.449,2.14-3.816,2.811s-2.659,1.158-3.875,1.462l11.775,21.156h-9.344l-11.357-20.396h-3.836v20.396h-8.166
			v-53.061h16.332c3.064,0.151,5.799,0.835,8.205,2.051c1.037,0.507,2.044,1.152,3.02,1.938c0.975,0.785,1.842,1.753,2.602,2.905
			s1.373,2.501,1.842,4.045C648.291,345.322,648.525,347.12,648.525,349.17z M623.988,357.336l8.66-0.076
			c0.278-0.024,0.658-0.082,1.14-0.171c0.48-0.088,1.007-0.233,1.576-0.437c0.569-0.202,1.146-0.487,1.728-0.854
			c0.583-0.367,1.115-0.849,1.596-1.443s0.873-1.316,1.178-2.165c0.304-0.848,0.455-1.854,0.455-3.02
			c0-1.038-0.113-1.943-0.342-2.716c-0.228-0.772-0.531-1.443-0.911-2.013c-0.38-0.57-0.816-1.051-1.31-1.443
			c-0.494-0.393-0.994-0.715-1.501-0.969c-1.216-0.607-2.583-0.949-4.103-1.025h-8.166V357.336z"/>
	</g>
	<g enable-background="new    ">
		<path fill="#D31245" d="M664.441,385.899h-8.166v-53.137h8.166V385.899z"/>
		<path fill="#D31245" d="M708.045,385.899h-8.432l-2.165-8.166h-17.737l-2.166,8.166h-8.394l14.13-53.137h10.597L708.045,385.899z
			 M695.283,369.567l-6.686-28.639l-6.723,28.639H695.283z"/>
	</g>
</g>
<g enable-background="new    ">
	<path fill="#D31245" d="M259.726,283.12v-64.896h18.579v64.896c0,2.363,0.489,4.163,1.469,5.401
		c0.979,1.239,2.044,2.175,3.197,2.809c1.383,0.69,2.908,1.095,4.58,1.209h9.333c2.361,0,4.161-0.503,5.401-1.512
		c1.238-1.008,2.146-2.088,2.722-3.24c0.633-1.383,1.007-2.938,1.124-4.667v-64.896h18.579v92.894h-9.246l-9.333-9.419
		c0,2.363-0.475,4.163-1.426,5.4c-0.951,1.24-2.002,2.176-3.154,2.809c-1.382,0.691-2.938,1.095-4.666,1.21h-9.333
		c-5.185-0.287-9.823-1.469-13.913-3.543c-1.728-0.864-3.428-1.973-5.098-3.327c-1.672-1.353-3.154-3.01-4.45-4.969
		c-1.296-1.957-2.348-4.263-3.154-6.913C260.129,289.717,259.726,286.634,259.726,283.12z"/>
	<path fill="#D31245" d="M385.398,221.68c1.728,0.864,3.441,1.96,5.142,3.284c1.698,1.326,3.197,2.968,4.493,4.926
		c1.296,1.959,2.347,4.264,3.154,6.913c0.806,2.65,1.21,5.703,1.21,9.159v65.155h-9.419l-9.16-9.419c0,2.363-0.49,4.163-1.469,5.4
		c-0.98,1.24-2.045,2.176-3.197,2.809c-1.383,0.691-2.968,1.095-4.753,1.21h-9.16c-5.243-0.287-9.909-1.469-13.999-3.543
		c-1.728-0.864-3.443-1.973-5.141-3.327c-1.7-1.353-3.197-3.01-4.494-4.969c-1.296-1.957-2.348-4.263-3.154-6.913
		c-0.807-2.648-1.209-5.731-1.209-9.246c0-3.456,0.402-6.509,1.209-9.159c0.806-2.649,1.858-4.954,3.154-6.913
		c1.296-1.958,2.793-3.6,4.494-4.926c1.698-1.324,3.413-2.42,5.141-3.283c4.09-2.017,8.756-3.168,13.999-3.457h18.579v-9.419
		c0-2.304-0.49-4.075-1.469-5.314c-0.98-1.238-2.045-2.146-3.197-2.722c-1.383-0.634-2.968-1.008-4.753-1.123h-31.541v-18.579
		h31.541C376.64,218.513,381.306,219.665,385.398,221.68z M380.818,273.96h-18.579c-1.728,0.116-3.284,0.49-4.666,1.123
		c-1.153,0.576-2.233,1.484-3.241,2.722c-1.009,1.24-1.512,3.012-1.512,5.314c0,2.363,0.503,4.163,1.512,5.401
		c1.007,1.239,2.087,2.175,3.241,2.809c1.382,0.69,2.938,1.095,4.666,1.209h9.16c1.785-0.114,3.37-0.519,4.753-1.209
		c1.152-0.634,2.217-1.569,3.197-2.809c0.979-1.238,1.469-3.038,1.469-5.401V273.96z"/>
	<path fill="#D31245" d="M478.491,245.617v65.501h-18.579v-64.982c0-2.361-0.49-4.161-1.469-5.4
		c-0.98-1.238-2.045-2.174-3.197-2.809c-1.383-0.691-2.968-1.065-4.752-1.123h-9.16c-2.363,0-4.163,0.489-5.4,1.469
		c-1.24,0.98-2.176,2.045-2.809,3.197c-0.691,1.383-1.096,2.938-1.211,4.666v64.982h-18.578v-92.894h9.419l9.159,9.332
		c0-2.361,0.504-4.161,1.513-5.4c1.007-1.238,2.087-2.174,3.241-2.809c1.383-0.691,2.938-1.065,4.666-1.123h9.16
		c5.24,0.23,9.907,1.326,13.998,3.283c1.729,0.864,3.441,1.944,5.142,3.241c1.698,1.296,3.197,2.909,4.493,4.839
		c1.297,1.931,2.348,4.221,3.154,6.87C478.088,239.108,478.491,242.161,478.491,245.617z"/>
</g>
<g enable-background="new    ">
	<path fill="#D31245" d="M511.046,236.803v46.316c0.114,1.729,0.519,3.284,1.21,4.667c0.633,1.152,1.568,2.232,2.809,3.24
		c1.238,1.009,3.037,1.512,5.4,1.512h9.16v18.579h-9.16c-5.242-0.287-9.909-1.469-13.999-3.543
		c-1.728-0.864-3.442-1.973-5.142-3.327c-1.699-1.353-3.197-3.01-4.493-4.969c-1.296-1.957-2.349-4.263-3.154-6.913
		c-0.808-2.648-1.21-5.731-1.21-9.246v-46.316h-9.246v-5.704l21.949-31.454h5.876v18.579h18.579v18.579H511.046z"/>
</g>
<g enable-background="new    ">
	<path fill="#D31245" d="M539.309,283.12v-64.896h18.579v64.896c0,2.363,0.488,4.163,1.469,5.401
		c0.979,1.239,2.045,2.175,3.197,2.809c1.383,0.69,2.908,1.095,4.58,1.209h9.332c2.361,0,4.162-0.503,5.401-1.512
		c1.237-1.008,2.146-2.088,2.722-3.24c0.633-1.383,1.008-2.938,1.123-4.667v-64.896h18.579v92.894h-9.246l-9.333-9.419
		c0,2.363-0.475,4.163-1.426,5.4c-0.95,1.24-2.002,2.176-3.154,2.809c-1.382,0.691-2.938,1.095-4.666,1.21h-9.332
		c-5.186-0.287-9.822-1.469-13.912-3.543c-1.729-0.864-3.429-1.973-5.099-3.327c-1.672-1.353-3.154-3.01-4.45-4.969
		c-1.297-1.957-2.348-4.263-3.154-6.913C539.712,289.717,539.309,286.634,539.309,283.12z"/>
</g>
<g enable-background="new    ">
	<path fill="#D31245" d="M680.004,218.224c3.457,0,6.51,0.389,9.16,1.166c2.648,0.778,4.953,1.815,6.912,3.111
		s3.615,2.78,4.969,4.45c1.354,1.672,2.463,3.37,3.327,5.099c2.017,4.033,3.168,8.671,3.456,13.912v65.155H689.25v-65.155
		c-0.116-1.67-0.49-3.197-1.123-4.58c-0.576-1.151-1.484-2.203-2.723-3.153c-1.239-0.951-3.039-1.426-5.4-1.426
		c-2.363,0-4.162,0.475-5.4,1.426c-1.24,0.95-2.176,2.002-2.809,3.153c-0.691,1.383-1.096,2.91-1.21,4.58v65.155h-18.579v-65.155
		c0-2.304-0.475-4.075-1.426-5.314c-0.95-1.238-2.002-2.146-3.154-2.722c-1.383-0.634-2.909-1.008-4.58-1.123
		c-2.362,0-4.162,0.475-5.4,1.426c-1.239,0.95-2.175,2.002-2.809,3.153c-0.691,1.383-1.095,2.91-1.209,4.58v65.155h-18.579v-92.894
		h9.419l9.16,9.159c0-2.303,0.504-4.074,1.512-5.313c1.008-1.238,2.088-2.146,3.24-2.723c1.383-0.633,2.938-1.007,4.666-1.123
		c2.708,0.116,5.214,0.635,7.519,1.556c2.017,0.807,4.003,2.03,5.962,3.672c1.959,1.643,3.371,4.019,4.234,7.129
		c0.402-1.611,1.037-3.153,1.901-4.623c0.864-1.469,2.06-2.778,3.587-3.932c1.525-1.151,3.426-2.073,5.703-2.765
		C674.026,218.57,676.777,218.224,680.004,218.224z"/>
</g>
<g enable-background="new    ">
	<path fill="#262626" d="M224.293,420.851h-2.129l-0.546-2.062h-4.478l-0.547,2.062h-2.119l3.567-13.415h2.675L224.293,420.851z
		 M221.071,416.728l-1.688-7.23l-1.697,7.23H221.071z"/>
	<path fill="#262626" d="M239.213,411.559h-2.062c-0.019-0.383-0.105-0.729-0.259-1.035c-0.064-0.128-0.146-0.254-0.245-0.379
		s-0.222-0.234-0.369-0.331c-0.147-0.096-0.318-0.172-0.513-0.229c-0.195-0.058-0.424-0.087-0.686-0.087
		c-0.255,0-0.481,0.029-0.676,0.087c-0.195,0.058-0.366,0.134-0.513,0.229c-0.147,0.097-0.27,0.206-0.369,0.331
		s-0.181,0.251-0.245,0.379c-0.153,0.307-0.239,0.652-0.259,1.035v5.169c0.02,0.377,0.105,0.719,0.259,1.025
		c0.064,0.128,0.146,0.255,0.245,0.379c0.099,0.125,0.222,0.235,0.369,0.331s0.318,0.174,0.513,0.235
		c0.195,0.061,0.42,0.091,0.676,0.091c0.262,0,0.491-0.03,0.686-0.091c0.195-0.062,0.366-0.14,0.513-0.235s0.27-0.206,0.369-0.331
		c0.099-0.124,0.181-0.251,0.245-0.379c0.153-0.307,0.24-0.648,0.259-1.025h2.062c-0.038,0.767-0.211,1.454-0.518,2.062
		c-0.128,0.256-0.291,0.508-0.489,0.758c-0.198,0.249-0.442,0.47-0.733,0.661c-0.291,0.192-0.633,0.347-1.026,0.465
		c-0.393,0.119-0.849,0.178-1.367,0.178c-0.518,0-0.972-0.059-1.361-0.178c-0.39-0.118-0.73-0.272-1.021-0.465
		c-0.291-0.191-0.535-0.412-0.733-0.661c-0.198-0.25-0.361-0.502-0.489-0.758c-0.307-0.607-0.479-1.295-0.518-2.062v-5.169
		c0.039-0.767,0.211-1.454,0.518-2.062c0.127-0.262,0.291-0.516,0.489-0.762s0.442-0.466,0.733-0.657s0.631-0.347,1.021-0.465
		c0.39-0.118,0.844-0.178,1.361-0.178c0.518,0,0.974,0.06,1.367,0.178s0.735,0.273,1.026,0.465s0.535,0.411,0.733,0.657
		s0.361,0.5,0.489,0.762C239.002,410.105,239.175,410.792,239.213,411.559z"/>
	<path fill="#262626" d="M248.303,413.621c-0.026,0.582-0.154,1.1-0.384,1.554c-0.096,0.192-0.219,0.382-0.369,0.57
		c-0.15,0.189-0.335,0.355-0.556,0.499s-0.478,0.261-0.772,0.35c-0.294,0.09-0.636,0.135-1.026,0.135h-2.062v1.017
		c0.013,0.191,0.057,0.364,0.134,0.518c0.07,0.128,0.172,0.248,0.307,0.359c0.134,0.112,0.333,0.168,0.595,0.168h4.133v2.062h-4.133
		c-0.576-0.032-1.09-0.163-1.544-0.394c-0.192-0.096-0.382-0.219-0.571-0.369c-0.188-0.149-0.354-0.334-0.499-0.551
		c-0.144-0.218-0.26-0.474-0.35-0.768c-0.089-0.294-0.134-0.636-0.134-1.025v-4.124c0.032-0.581,0.16-1.096,0.384-1.543
		c0.096-0.192,0.219-0.381,0.369-0.566c0.15-0.185,0.334-0.35,0.551-0.493c0.217-0.145,0.475-0.259,0.772-0.346
		c0.297-0.086,0.638-0.129,1.021-0.129h1.026c0.582,0.031,1.099,0.159,1.553,0.383c0.192,0.097,0.382,0.218,0.571,0.364
		c0.188,0.147,0.354,0.33,0.499,0.547c0.144,0.218,0.26,0.474,0.35,0.768C248.259,412.899,248.303,413.238,248.303,413.621z
		 M245.197,414.667c0.198-0.013,0.374-0.058,0.527-0.135c0.128-0.07,0.246-0.174,0.355-0.312c0.108-0.138,0.163-0.337,0.163-0.6
		c0-0.255-0.054-0.452-0.163-0.589c-0.109-0.138-0.227-0.238-0.355-0.303c-0.153-0.07-0.33-0.111-0.527-0.124h-1.026
		c-0.192,0.013-0.365,0.054-0.518,0.124c-0.128,0.064-0.246,0.165-0.355,0.303c-0.108,0.137-0.163,0.334-0.163,0.589v1.046H245.197z
		"/>
	<path fill="#262626" d="M257.681,413.583v7.269h-2.062v-7.211c0-0.262-0.054-0.462-0.163-0.6c-0.108-0.137-0.227-0.241-0.354-0.312
		c-0.154-0.076-0.33-0.118-0.527-0.124h-1.017c-0.262,0-0.462,0.054-0.599,0.163c-0.138,0.108-0.242,0.227-0.312,0.354
		c-0.077,0.153-0.122,0.326-0.134,0.518v7.211h-2.062v-10.308h1.045l1.016,1.035c0-0.262,0.056-0.462,0.168-0.6
		c0.112-0.137,0.231-0.241,0.359-0.312c0.154-0.076,0.326-0.118,0.518-0.124h1.017c0.582,0.025,1.099,0.146,1.553,0.364
		c0.192,0.096,0.382,0.216,0.57,0.359s0.355,0.323,0.499,0.537c0.144,0.214,0.26,0.468,0.35,0.762
		C257.636,412.861,257.681,413.199,257.681,413.583z"/>
	<path fill="#262626" d="M262.629,412.605v5.14c0.013,0.191,0.058,0.364,0.134,0.518c0.07,0.128,0.174,0.248,0.312,0.359
		c0.137,0.112,0.337,0.168,0.599,0.168h1.017v2.062h-1.017c-0.582-0.032-1.1-0.163-1.553-0.394
		c-0.192-0.096-0.382-0.219-0.571-0.369c-0.188-0.149-0.355-0.334-0.499-0.551c-0.144-0.218-0.261-0.474-0.35-0.768
		s-0.134-0.636-0.134-1.025v-5.14h-1.026v-0.633l2.436-3.491h0.652v2.063h2.062v2.062H262.629z"/>
	<path fill="#262626" d="M268.871,418.79h2.062v2.062h-5.168v-2.062h1.045v-8.246h1.017l1.045,1.016
		c0.013-0.185,0.054-0.354,0.125-0.508c0.063-0.128,0.164-0.244,0.302-0.35s0.334-0.158,0.59-0.158h2.062v2.062h-2.062
		c-0.186,0.013-0.355,0.054-0.508,0.124c-0.128,0.064-0.245,0.165-0.35,0.303c-0.105,0.137-0.158,0.334-0.158,0.589V418.79z"/>
	<path fill="#262626" d="M280.56,413.621c-0.026,0.582-0.154,1.1-0.384,1.554c-0.096,0.192-0.219,0.382-0.369,0.57
		c-0.15,0.189-0.335,0.355-0.556,0.499s-0.478,0.261-0.772,0.35c-0.294,0.09-0.636,0.135-1.026,0.135h-2.062v1.017
		c0.013,0.191,0.057,0.364,0.134,0.518c0.07,0.128,0.172,0.248,0.307,0.359c0.134,0.112,0.333,0.168,0.595,0.168h4.133v2.062h-4.133
		c-0.576-0.032-1.09-0.163-1.544-0.394c-0.192-0.096-0.382-0.219-0.571-0.369c-0.188-0.149-0.354-0.334-0.499-0.551
		c-0.144-0.218-0.26-0.474-0.35-0.768c-0.089-0.294-0.134-0.636-0.134-1.025v-4.124c0.032-0.581,0.16-1.096,0.384-1.543
		c0.096-0.192,0.219-0.381,0.369-0.566c0.15-0.185,0.334-0.35,0.551-0.493c0.217-0.145,0.475-0.259,0.772-0.346
		c0.297-0.086,0.638-0.129,1.021-0.129h1.026c0.582,0.031,1.099,0.159,1.553,0.383c0.192,0.097,0.382,0.218,0.571,0.364
		c0.188,0.147,0.354,0.33,0.499,0.547c0.144,0.218,0.26,0.474,0.35,0.768C280.515,412.899,280.56,413.238,280.56,413.621z
		 M277.453,414.667c0.198-0.013,0.374-0.058,0.527-0.135c0.128-0.07,0.246-0.174,0.355-0.312c0.108-0.138,0.163-0.337,0.163-0.6
		c0-0.255-0.054-0.452-0.163-0.589c-0.109-0.138-0.227-0.238-0.355-0.303c-0.153-0.07-0.33-0.111-0.527-0.124h-1.026
		c-0.192,0.013-0.365,0.054-0.518,0.124c-0.128,0.064-0.246,0.165-0.355,0.303c-0.108,0.137-0.163,0.334-0.163,0.589v1.046H277.453z
		"/>
	<path fill="#262626" d="M294.071,410.926c0.191,0.097,0.38,0.218,0.565,0.364c0.186,0.147,0.35,0.33,0.494,0.547
		c0.144,0.218,0.259,0.474,0.345,0.768c0.086,0.294,0.129,0.633,0.129,1.016v4.124c-0.032,0.581-0.16,1.1-0.384,1.553
		c-0.096,0.192-0.217,0.383-0.364,0.571s-0.33,0.354-0.547,0.498s-0.473,0.261-0.767,0.351c-0.294,0.089-0.633,0.134-1.016,0.134
		h-1.045c-0.575-0.032-1.087-0.163-1.534-0.394c-0.192-0.096-0.38-0.219-0.565-0.369c-0.186-0.149-0.35-0.334-0.494-0.551
		c-0.144-0.218-0.26-0.474-0.35-0.768c-0.089-0.294-0.134-0.636-0.134-1.025v-4.124c0.032-0.581,0.16-1.096,0.384-1.543
		c0.096-0.192,0.219-0.381,0.369-0.566c0.15-0.185,0.333-0.35,0.546-0.493c0.214-0.145,0.468-0.259,0.763-0.346
		c0.294-0.086,0.633-0.129,1.016-0.129h1.045C293.109,410.575,293.623,410.703,294.071,410.926z M293.543,413.621
		c-0.013-0.185-0.054-0.354-0.125-0.508c-0.064-0.128-0.165-0.244-0.302-0.35c-0.138-0.105-0.334-0.158-0.59-0.158h-1.045
		c-0.186,0.013-0.354,0.054-0.508,0.124c-0.128,0.064-0.244,0.165-0.35,0.303c-0.105,0.137-0.158,0.334-0.158,0.589v4.124
		c0.013,0.191,0.054,0.364,0.125,0.518c0.064,0.128,0.165,0.248,0.302,0.359c0.137,0.112,0.333,0.168,0.589,0.168h1.045
		c0.185-0.013,0.354-0.058,0.508-0.135c0.127-0.07,0.244-0.174,0.35-0.312c0.105-0.137,0.158-0.337,0.158-0.599V413.621z"/>
	<path fill="#262626" d="M300.16,408.64c-0.141,0.105-0.243,0.222-0.307,0.35c-0.07,0.153-0.112,0.323-0.125,0.508
		c0.006,0.192,0.035,0.364,0.086,0.519c0.044,0.128,0.11,0.247,0.196,0.359c0.086,0.111,0.209,0.168,0.369,0.168h2.062v2.062h-2.062
		v8.246h-2.062v-8.246h-1.045v-2.062h1.007c-0.167-0.16-0.311-0.356-0.432-0.59c-0.122-0.233-0.182-0.522-0.182-0.868
		c0-0.332,0.044-0.625,0.134-0.877c0.089-0.253,0.206-0.474,0.35-0.662c0.144-0.188,0.309-0.347,0.494-0.475
		c0.185-0.128,0.374-0.233,0.565-0.316c0.454-0.198,0.969-0.31,1.544-0.336h1.688v2.062h-1.688
		C300.498,408.481,300.3,408.534,300.16,408.64z"/>
	<path fill="#262626" d="M317.122,407.436v2.062h-5.168v3.107h4.124v2.062h-4.124v4.123h5.168v2.062h-7.23v-13.415H317.122z"/>
	<path fill="#262626" d="M323.509,415.683l2.752,5.168h-2.263l-1.86-3.576l-1.851,3.576h-2.282l2.771-5.168l-2.771-5.14h2.282
		l1.851,3.576l1.86-3.576h2.263L323.509,415.683z"/>
	<path fill="#262626" d="M327.632,413.621c0.032-0.581,0.16-1.096,0.384-1.543c0.096-0.192,0.219-0.381,0.369-0.566
		c0.15-0.185,0.334-0.35,0.551-0.493c0.217-0.145,0.475-0.259,0.772-0.346c0.297-0.086,0.638-0.129,1.021-0.129h1.026
		c0.582,0.031,1.099,0.159,1.553,0.383c0.192,0.097,0.382,0.218,0.571,0.364c0.188,0.147,0.354,0.33,0.499,0.547
		c0.144,0.218,0.26,0.474,0.35,0.768c0.089,0.294,0.134,0.633,0.134,1.016H332.8c-0.013-0.185-0.057-0.354-0.134-0.508
		c-0.07-0.128-0.172-0.244-0.307-0.35s-0.335-0.158-0.604-0.158h-1.026c-0.192,0.013-0.365,0.054-0.518,0.124
		c-0.128,0.064-0.246,0.165-0.355,0.303c-0.108,0.137-0.163,0.334-0.163,0.589v4.124c0.013,0.191,0.057,0.364,0.134,0.518
		c0.07,0.128,0.172,0.248,0.307,0.359c0.134,0.112,0.333,0.168,0.595,0.168h1.026c0.198-0.013,0.374-0.058,0.527-0.135
		c0.128-0.07,0.246-0.174,0.355-0.312c0.108-0.137,0.163-0.337,0.163-0.599h2.062c-0.026,0.581-0.154,1.1-0.384,1.553
		c-0.096,0.192-0.219,0.383-0.369,0.571c-0.15,0.188-0.335,0.354-0.556,0.498s-0.478,0.261-0.772,0.351
		c-0.294,0.089-0.636,0.134-1.026,0.134h-1.026c-0.576-0.032-1.09-0.163-1.544-0.394c-0.192-0.096-0.382-0.219-0.571-0.369
		c-0.188-0.149-0.354-0.334-0.499-0.551c-0.144-0.218-0.26-0.474-0.35-0.768c-0.089-0.294-0.134-0.636-0.134-1.025V413.621z"/>
	<path fill="#262626" d="M344.048,413.621c-0.026,0.582-0.154,1.1-0.384,1.554c-0.096,0.192-0.219,0.382-0.369,0.57
		c-0.15,0.189-0.335,0.355-0.556,0.499s-0.478,0.261-0.772,0.35c-0.294,0.09-0.636,0.135-1.026,0.135h-2.062v1.017
		c0.013,0.191,0.057,0.364,0.134,0.518c0.07,0.128,0.172,0.248,0.307,0.359c0.134,0.112,0.333,0.168,0.595,0.168h4.133v2.062h-4.133
		c-0.576-0.032-1.09-0.163-1.544-0.394c-0.192-0.096-0.382-0.219-0.571-0.369c-0.188-0.149-0.354-0.334-0.499-0.551
		c-0.144-0.218-0.26-0.474-0.35-0.768c-0.089-0.294-0.134-0.636-0.134-1.025v-4.124c0.032-0.581,0.16-1.096,0.384-1.543
		c0.096-0.192,0.219-0.381,0.369-0.566c0.15-0.185,0.334-0.35,0.551-0.493c0.217-0.145,0.475-0.259,0.772-0.346
		c0.297-0.086,0.638-0.129,1.021-0.129h1.026c0.582,0.031,1.099,0.159,1.553,0.383c0.192,0.097,0.382,0.218,0.571,0.364
		c0.188,0.147,0.354,0.33,0.499,0.547c0.144,0.218,0.26,0.474,0.35,0.768C344.003,412.899,344.048,413.238,344.048,413.621z
		 M340.941,414.667c0.198-0.013,0.374-0.058,0.527-0.135c0.128-0.07,0.246-0.174,0.355-0.312c0.108-0.138,0.163-0.337,0.163-0.6
		c0-0.255-0.054-0.452-0.163-0.589c-0.109-0.138-0.227-0.238-0.355-0.303c-0.153-0.07-0.33-0.111-0.527-0.124h-1.026
		c-0.192,0.013-0.365,0.054-0.518,0.124c-0.128,0.064-0.246,0.165-0.355,0.303c-0.108,0.137-0.163,0.334-0.163,0.589v1.046H340.941z
		"/>
	<path fill="#262626" d="M349.437,418.79v2.062h-4.123v-2.062h1.045v-12.37h2.062v12.37H349.437z"/>
	<path fill="#262626" d="M354.538,418.79v2.062h-4.123v-2.062h1.045v-12.37h2.062v12.37H354.538z"/>
	<path fill="#262626" d="M363.437,413.621c-0.026,0.582-0.154,1.1-0.384,1.554c-0.096,0.192-0.219,0.382-0.369,0.57
		c-0.15,0.189-0.335,0.355-0.556,0.499s-0.478,0.261-0.772,0.35c-0.294,0.09-0.636,0.135-1.026,0.135h-2.062v1.017
		c0.013,0.191,0.057,0.364,0.134,0.518c0.07,0.128,0.172,0.248,0.307,0.359c0.134,0.112,0.333,0.168,0.595,0.168h4.133v2.062h-4.133
		c-0.576-0.032-1.09-0.163-1.544-0.394c-0.192-0.096-0.382-0.219-0.571-0.369c-0.188-0.149-0.354-0.334-0.499-0.551
		c-0.144-0.218-0.26-0.474-0.35-0.768c-0.089-0.294-0.134-0.636-0.134-1.025v-4.124c0.032-0.581,0.16-1.096,0.384-1.543
		c0.096-0.192,0.219-0.381,0.369-0.566c0.15-0.185,0.334-0.35,0.551-0.493c0.217-0.145,0.475-0.259,0.772-0.346
		c0.297-0.086,0.638-0.129,1.021-0.129h1.026c0.582,0.031,1.099,0.159,1.553,0.383c0.192,0.097,0.382,0.218,0.571,0.364
		c0.188,0.147,0.354,0.33,0.499,0.547c0.144,0.218,0.26,0.474,0.35,0.768C363.392,412.899,363.437,413.238,363.437,413.621z
		 M360.33,414.667c0.198-0.013,0.374-0.058,0.527-0.135c0.128-0.07,0.246-0.174,0.355-0.312c0.108-0.138,0.163-0.337,0.163-0.6
		c0-0.255-0.054-0.452-0.163-0.589c-0.109-0.138-0.227-0.238-0.355-0.303c-0.153-0.07-0.33-0.111-0.527-0.124h-1.026
		c-0.192,0.013-0.365,0.054-0.518,0.124c-0.128,0.064-0.246,0.165-0.355,0.303c-0.108,0.137-0.163,0.334-0.163,0.589v1.046H360.33z"
		/>
	<path fill="#262626" d="M372.814,413.583v7.269h-2.062v-7.211c0-0.262-0.054-0.462-0.163-0.6c-0.108-0.137-0.227-0.241-0.354-0.312
		c-0.154-0.076-0.33-0.118-0.527-0.124h-1.017c-0.262,0-0.462,0.054-0.599,0.163c-0.138,0.108-0.242,0.227-0.312,0.354
		c-0.077,0.153-0.122,0.326-0.134,0.518v7.211h-2.062v-10.308h1.045l1.016,1.035c0-0.262,0.056-0.462,0.168-0.6
		c0.112-0.137,0.231-0.241,0.359-0.312c0.154-0.076,0.326-0.118,0.518-0.124h1.017c0.582,0.025,1.099,0.146,1.553,0.364
		c0.192,0.096,0.382,0.216,0.57,0.359s0.355,0.323,0.499,0.537c0.144,0.214,0.26,0.468,0.35,0.762
		C372.77,412.861,372.814,413.199,372.814,413.583z"/>
	<path fill="#262626" d="M375.269,413.621c0.032-0.581,0.16-1.096,0.384-1.543c0.096-0.192,0.219-0.381,0.369-0.566
		c0.15-0.185,0.334-0.35,0.551-0.493c0.217-0.145,0.475-0.259,0.772-0.346c0.297-0.086,0.638-0.129,1.021-0.129h1.026
		c0.582,0.031,1.099,0.159,1.553,0.383c0.192,0.097,0.382,0.218,0.571,0.364c0.188,0.147,0.354,0.33,0.499,0.547
		c0.144,0.218,0.26,0.474,0.35,0.768c0.089,0.294,0.134,0.633,0.134,1.016h-2.062c-0.013-0.185-0.057-0.354-0.134-0.508
		c-0.07-0.128-0.172-0.244-0.307-0.35s-0.335-0.158-0.604-0.158h-1.026c-0.192,0.013-0.365,0.054-0.518,0.124
		c-0.128,0.064-0.246,0.165-0.355,0.303c-0.108,0.137-0.163,0.334-0.163,0.589v4.124c0.013,0.191,0.057,0.364,0.134,0.518
		c0.07,0.128,0.172,0.248,0.307,0.359c0.134,0.112,0.333,0.168,0.595,0.168h1.026c0.198-0.013,0.374-0.058,0.527-0.135
		c0.128-0.07,0.246-0.174,0.355-0.312c0.108-0.137,0.163-0.337,0.163-0.599h2.062c-0.026,0.581-0.154,1.1-0.384,1.553
		c-0.096,0.192-0.219,0.383-0.369,0.571c-0.15,0.188-0.335,0.354-0.556,0.498s-0.478,0.261-0.772,0.351
		c-0.294,0.089-0.636,0.134-1.026,0.134h-1.026c-0.576-0.032-1.09-0.163-1.544-0.394c-0.192-0.096-0.382-0.219-0.571-0.369
		c-0.188-0.149-0.354-0.334-0.499-0.551c-0.144-0.218-0.26-0.474-0.35-0.768c-0.089-0.294-0.134-0.636-0.134-1.025V413.621z"/>
	<path fill="#262626" d="M391.685,413.621c-0.026,0.582-0.154,1.1-0.384,1.554c-0.096,0.192-0.219,0.382-0.369,0.57
		c-0.15,0.189-0.335,0.355-0.556,0.499s-0.478,0.261-0.772,0.35c-0.294,0.09-0.636,0.135-1.026,0.135h-2.062v1.017
		c0.013,0.191,0.057,0.364,0.134,0.518c0.07,0.128,0.172,0.248,0.307,0.359c0.134,0.112,0.333,0.168,0.595,0.168h4.133v2.062h-4.133
		c-0.576-0.032-1.09-0.163-1.544-0.394c-0.192-0.096-0.382-0.219-0.571-0.369c-0.188-0.149-0.354-0.334-0.499-0.551
		c-0.144-0.218-0.26-0.474-0.35-0.768c-0.089-0.294-0.134-0.636-0.134-1.025v-4.124c0.032-0.581,0.16-1.096,0.384-1.543
		c0.096-0.192,0.219-0.381,0.369-0.566c0.15-0.185,0.334-0.35,0.551-0.493c0.217-0.145,0.475-0.259,0.772-0.346
		c0.297-0.086,0.638-0.129,1.021-0.129h1.026c0.582,0.031,1.099,0.159,1.553,0.383c0.192,0.097,0.382,0.218,0.571,0.364
		c0.188,0.147,0.354,0.33,0.499,0.547c0.144,0.218,0.26,0.474,0.35,0.768C391.64,412.899,391.685,413.238,391.685,413.621z
		 M388.578,414.667c0.198-0.013,0.374-0.058,0.527-0.135c0.128-0.07,0.246-0.174,0.355-0.312c0.108-0.138,0.163-0.337,0.163-0.6
		c0-0.255-0.054-0.452-0.163-0.589c-0.109-0.138-0.227-0.238-0.355-0.303c-0.153-0.07-0.33-0.111-0.527-0.124h-1.026
		c-0.192,0.013-0.365,0.054-0.518,0.124c-0.128,0.064-0.246,0.165-0.355,0.303c-0.108,0.137-0.163,0.334-0.163,0.589v1.046H388.578z
		"/>
	<path fill="#262626" d="M409.645,413.113v2.062h-2.062v5.677h-4.133c-0.275,0-0.567-0.028-0.877-0.086
		c-0.311-0.058-0.619-0.152-0.926-0.283c-0.307-0.131-0.599-0.297-0.877-0.499c-0.278-0.201-0.524-0.444-0.739-0.729
		c-0.214-0.284-0.385-0.615-0.513-0.992s-0.192-0.803-0.192-1.275c0-0.665,0.12-1.228,0.36-1.688
		c0.239-0.461,0.538-0.841,0.896-1.142c-0.179-0.159-0.345-0.335-0.499-0.527c-0.153-0.191-0.286-0.405-0.397-0.643
		c-0.112-0.236-0.2-0.493-0.264-0.771s-0.096-0.58-0.096-0.906c0-0.473,0.064-0.896,0.192-1.271s0.299-0.705,0.513-0.992
		c0.214-0.288,0.46-0.534,0.739-0.738c0.278-0.205,0.57-0.371,0.877-0.499c0.307-0.128,0.615-0.222,0.926-0.283
		c0.31-0.061,0.602-0.091,0.877-0.091h3.107v2.062h-3.107c-0.051,0-0.139,0.007-0.264,0.02c-0.125,0.013-0.264,0.04-0.417,0.081
		c-0.153,0.042-0.312,0.102-0.475,0.178c-0.163,0.077-0.312,0.183-0.446,0.316c-0.134,0.135-0.245,0.301-0.331,0.499
		c-0.086,0.198-0.129,0.438-0.129,0.719s0.043,0.521,0.129,0.72c0.086,0.197,0.197,0.364,0.331,0.498
		c0.134,0.135,0.283,0.24,0.446,0.316c0.163,0.077,0.321,0.136,0.475,0.178c0.153,0.041,0.292,0.067,0.417,0.076
		c0.125,0.01,0.212,0.015,0.264,0.015H409.645z M405.522,415.174h-2.071c-0.051,0-0.139,0.005-0.264,0.015
		c-0.125,0.01-0.264,0.035-0.417,0.076c-0.153,0.042-0.312,0.102-0.475,0.178c-0.163,0.077-0.312,0.183-0.446,0.316
		c-0.134,0.135-0.245,0.302-0.331,0.504c-0.086,0.201-0.129,0.442-0.129,0.724s0.043,0.521,0.129,0.719
		c0.086,0.198,0.197,0.364,0.331,0.499c0.134,0.134,0.283,0.239,0.446,0.316s0.321,0.136,0.475,0.178
		c0.153,0.041,0.292,0.066,0.417,0.076c0.125,0.01,0.212,0.015,0.264,0.015h2.071V415.174z"/>
	<path fill="#262626" d="M418.965,420.851h-2.062v-13.415h2.062V420.851z"/>
	<path fill="#262626" d="M428.947,413.583v7.269h-2.061v-7.211c0-0.262-0.055-0.462-0.164-0.6c-0.107-0.137-0.227-0.241-0.354-0.312
		c-0.154-0.076-0.33-0.118-0.527-0.124h-1.018c-0.262,0-0.461,0.054-0.599,0.163c-0.138,0.108-0.241,0.227-0.312,0.354
		c-0.077,0.153-0.122,0.326-0.135,0.518v7.211h-2.062v-10.308h1.046l1.016,1.035c0-0.262,0.057-0.462,0.168-0.6
		c0.111-0.137,0.231-0.241,0.359-0.312c0.154-0.076,0.326-0.118,0.518-0.124h1.018c0.581,0.025,1.099,0.146,1.553,0.364
		c0.191,0.096,0.382,0.216,0.57,0.359s0.355,0.323,0.499,0.537s0.261,0.468,0.35,0.762
		C428.903,412.861,428.947,413.199,428.947,413.583z"/>
	<path fill="#262626" d="M438.824,413.583v7.269h-2.062v-7.211c0-0.262-0.054-0.462-0.163-0.6c-0.108-0.137-0.227-0.241-0.354-0.312
		c-0.153-0.076-0.329-0.118-0.527-0.124h-1.017c-0.262,0-0.462,0.054-0.6,0.163c-0.137,0.108-0.241,0.227-0.312,0.354
		c-0.077,0.153-0.122,0.326-0.134,0.518v7.211h-2.063v-10.308h1.046l1.017,1.035c0-0.262,0.056-0.462,0.168-0.6
		c0.111-0.137,0.23-0.241,0.359-0.312c0.153-0.076,0.326-0.118,0.518-0.124h1.017c0.581,0.025,1.099,0.146,1.554,0.364
		c0.191,0.096,0.381,0.216,0.57,0.359c0.188,0.144,0.354,0.323,0.498,0.537c0.145,0.214,0.261,0.468,0.35,0.762
		C438.779,412.861,438.824,413.199,438.824,413.583z"/>
	<path fill="#262626" d="M446.946,410.926c0.191,0.097,0.38,0.218,0.565,0.364c0.186,0.147,0.35,0.33,0.494,0.547
		c0.144,0.218,0.259,0.474,0.346,0.768c0.086,0.294,0.129,0.633,0.129,1.016v4.124c-0.032,0.581-0.16,1.1-0.384,1.553
		c-0.096,0.192-0.218,0.383-0.364,0.571s-0.33,0.354-0.547,0.498s-0.473,0.261-0.768,0.351c-0.293,0.089-0.633,0.134-1.016,0.134
		h-1.045c-0.576-0.032-1.088-0.163-1.535-0.394c-0.191-0.096-0.38-0.219-0.564-0.369c-0.186-0.149-0.351-0.334-0.494-0.551
		c-0.145-0.218-0.261-0.474-0.351-0.768c-0.089-0.294-0.134-0.636-0.134-1.025v-4.124c0.031-0.581,0.16-1.096,0.383-1.543
		c0.096-0.192,0.219-0.381,0.369-0.566c0.15-0.185,0.333-0.35,0.547-0.493c0.215-0.145,0.469-0.259,0.763-0.346
		c0.294-0.086,0.633-0.129,1.017-0.129h1.045C445.984,410.575,446.498,410.703,446.946,410.926z M446.418,413.621
		c-0.012-0.185-0.054-0.354-0.124-0.508c-0.063-0.128-0.165-0.244-0.302-0.35c-0.138-0.105-0.334-0.158-0.59-0.158h-1.045
		c-0.186,0.013-0.355,0.054-0.509,0.124c-0.128,0.064-0.244,0.165-0.35,0.303c-0.105,0.137-0.158,0.334-0.158,0.589v4.124
		c0.013,0.191,0.054,0.364,0.124,0.518c0.064,0.128,0.165,0.248,0.303,0.359c0.137,0.112,0.334,0.168,0.59,0.168h1.045
		c0.186-0.013,0.354-0.058,0.508-0.135c0.128-0.07,0.244-0.174,0.35-0.312c0.105-0.137,0.158-0.337,0.158-0.599V413.621z"/>
	<path fill="#262626" d="M457.906,410.543l-3.078,10.308h-2.062l-3.106-10.308h2.157l1.966,7.201l1.984-7.201H457.906z"/>
	<path fill="#262626" d="M464.369,410.926c0.191,0.097,0.382,0.218,0.57,0.364c0.188,0.147,0.355,0.33,0.499,0.547
		c0.144,0.218,0.261,0.474,0.35,0.768c0.09,0.294,0.134,0.633,0.134,1.016v7.23h-1.045l-1.016-1.045
		c0,0.262-0.055,0.462-0.164,0.599c-0.107,0.138-0.227,0.242-0.354,0.313c-0.154,0.076-0.33,0.121-0.527,0.134h-1.018
		c-0.581-0.032-1.1-0.163-1.553-0.394c-0.191-0.096-0.383-0.219-0.57-0.369c-0.189-0.149-0.355-0.334-0.499-0.551
		c-0.144-0.218-0.261-0.474-0.351-0.768c-0.089-0.294-0.134-0.636-0.134-1.025c0-0.384,0.045-0.723,0.134-1.017
		c0.09-0.294,0.207-0.55,0.351-0.768c0.144-0.217,0.31-0.399,0.499-0.546c0.188-0.147,0.379-0.269,0.57-0.364
		c0.453-0.225,0.972-0.352,1.553-0.384h2.063v-1.046c0-0.255-0.055-0.452-0.164-0.589c-0.107-0.138-0.227-0.238-0.354-0.303
		c-0.154-0.07-0.33-0.111-0.527-0.124h-3.5v-2.062h3.5C463.397,410.575,463.915,410.703,464.369,410.926z M463.861,416.728h-2.063
		c-0.191,0.013-0.363,0.055-0.518,0.124c-0.127,0.064-0.248,0.165-0.359,0.303s-0.168,0.334-0.168,0.59
		c0,0.262,0.057,0.462,0.168,0.599c0.111,0.138,0.232,0.241,0.359,0.312c0.154,0.077,0.326,0.122,0.518,0.135h1.018
		c0.197-0.013,0.373-0.058,0.527-0.135c0.127-0.07,0.246-0.174,0.354-0.312c0.109-0.137,0.164-0.337,0.164-0.599V416.728z"/>
	<path fill="#262626" d="M470.87,412.605v5.14c0.013,0.191,0.058,0.364,0.134,0.518c0.07,0.128,0.175,0.248,0.313,0.359
		c0.137,0.112,0.337,0.168,0.6,0.168h1.016v2.062h-1.016c-0.582-0.032-1.1-0.163-1.554-0.394c-0.192-0.096-0.382-0.219-0.571-0.369
		c-0.188-0.149-0.354-0.334-0.498-0.551c-0.145-0.218-0.261-0.474-0.35-0.768c-0.09-0.294-0.135-0.636-0.135-1.025v-5.14h-1.025
		v-0.633l2.436-3.491h0.651v2.063h2.062v2.062H470.87z"/>
	<path fill="#262626" d="M478.129,418.79v2.062h-4.123v-2.062h1.045v-8.246h2.062v8.246H478.129z M477.112,408.481h-2.062v-2.062
		h2.062V408.481z"/>
	<path fill="#262626" d="M485.465,410.926c0.191,0.097,0.38,0.218,0.565,0.364c0.186,0.147,0.351,0.33,0.494,0.547
		c0.144,0.218,0.259,0.474,0.345,0.768s0.13,0.633,0.13,1.016v4.124c-0.032,0.581-0.16,1.1-0.384,1.553
		c-0.096,0.192-0.217,0.383-0.364,0.571s-0.329,0.354-0.547,0.498s-0.474,0.261-0.767,0.351c-0.295,0.089-0.633,0.134-1.017,0.134
		h-1.046c-0.574-0.032-1.086-0.163-1.533-0.394c-0.192-0.096-0.381-0.219-0.566-0.369c-0.186-0.149-0.35-0.334-0.494-0.551
		c-0.143-0.218-0.26-0.474-0.35-0.768s-0.135-0.636-0.135-1.025v-4.124c0.033-0.581,0.16-1.096,0.385-1.543
		c0.096-0.192,0.219-0.381,0.369-0.566c0.15-0.185,0.332-0.35,0.546-0.493c0.214-0.145,0.468-0.259,0.763-0.346
		c0.294-0.086,0.633-0.129,1.016-0.129h1.046C484.502,410.575,485.017,410.703,485.465,410.926z M484.937,413.621
		c-0.014-0.185-0.055-0.354-0.125-0.508c-0.064-0.128-0.164-0.244-0.302-0.35s-0.335-0.158-0.59-0.158h-1.046
		c-0.186,0.013-0.354,0.054-0.508,0.124c-0.128,0.064-0.244,0.165-0.35,0.303c-0.105,0.137-0.158,0.334-0.158,0.589v4.124
		c0.013,0.191,0.055,0.364,0.125,0.518c0.063,0.128,0.164,0.248,0.302,0.359c0.138,0.112,0.333,0.168,0.589,0.168h1.046
		c0.185-0.013,0.354-0.058,0.509-0.135c0.127-0.07,0.244-0.174,0.35-0.312c0.105-0.137,0.158-0.337,0.158-0.599V413.621z"/>
	<path fill="#262626" d="M496.779,413.583v7.269h-2.062v-7.211c0-0.262-0.054-0.462-0.163-0.6c-0.108-0.137-0.227-0.241-0.354-0.312
		c-0.153-0.076-0.329-0.118-0.527-0.124h-1.017c-0.262,0-0.462,0.054-0.6,0.163c-0.137,0.108-0.241,0.227-0.312,0.354
		c-0.077,0.153-0.122,0.326-0.134,0.518v7.211h-2.063v-10.308h1.046l1.017,1.035c0-0.262,0.056-0.462,0.168-0.6
		c0.111-0.137,0.23-0.241,0.359-0.312c0.153-0.076,0.326-0.118,0.518-0.124h1.017c0.581,0.025,1.099,0.146,1.554,0.364
		c0.191,0.096,0.381,0.216,0.57,0.359c0.188,0.144,0.354,0.323,0.498,0.537c0.145,0.214,0.261,0.468,0.35,0.762
		C496.734,412.861,496.779,413.199,496.779,413.583z"/>
	<path fill="#262626" d="M508.554,418.79v2.062h-4.123v-2.062h1.045v-8.246h2.062v8.246H508.554z M507.538,408.481h-2.062v-2.062
		h2.062V408.481z"/>
	<path fill="#262626" d="M517.644,413.583v7.269h-2.062v-7.211c0-0.262-0.054-0.462-0.163-0.6c-0.108-0.137-0.227-0.241-0.354-0.312
		c-0.153-0.076-0.329-0.118-0.527-0.124h-1.017c-0.262,0-0.462,0.054-0.6,0.163c-0.137,0.108-0.241,0.227-0.312,0.354
		c-0.077,0.153-0.122,0.326-0.134,0.518v7.211h-2.063v-10.308h1.046l1.017,1.035c0-0.262,0.056-0.462,0.168-0.6
		c0.111-0.137,0.23-0.241,0.359-0.312c0.153-0.076,0.326-0.118,0.518-0.124h1.017c0.581,0.025,1.099,0.146,1.554,0.364
		c0.191,0.096,0.381,0.216,0.57,0.359c0.188,0.144,0.354,0.323,0.498,0.537c0.145,0.214,0.261,0.468,0.35,0.762
		C517.599,412.861,517.644,413.199,517.644,413.583z"/>
	<path fill="#262626" d="M527.654,410.956c0,0.229,0.088,0.455,0.26,0.676s0.398,0.441,0.682,0.662
		c0.279,0.22,0.6,0.445,0.957,0.676c0.359,0.229,0.725,0.467,1.1,0.709c0.373,0.243,0.738,0.499,1.098,0.768
		c0.357,0.269,0.678,0.552,0.959,0.849s0.508,0.615,0.68,0.954c0.174,0.339,0.26,0.7,0.26,1.083c0,0.569-0.109,1.073-0.326,1.511
		s-0.514,0.806-0.887,1.103c-0.375,0.297-0.811,0.522-1.309,0.676c-0.5,0.153-1.033,0.23-1.602,0.23h-3.107v-2.042h3.107
		c0.344-0.013,0.652-0.077,0.92-0.192c0.115-0.051,0.229-0.111,0.34-0.182c0.113-0.07,0.211-0.157,0.299-0.26
		c0.086-0.102,0.154-0.224,0.205-0.364s0.076-0.3,0.076-0.479c0-0.229-0.086-0.455-0.258-0.676c-0.174-0.221-0.398-0.44-0.676-0.661
		c-0.279-0.221-0.598-0.446-0.955-0.677c-0.357-0.229-0.723-0.466-1.098-0.709c-0.373-0.243-0.74-0.499-1.098-0.768
		s-0.676-0.551-0.955-0.849c-0.277-0.297-0.502-0.615-0.676-0.954c-0.172-0.339-0.258-0.699-0.258-1.083
		c0-0.569,0.107-1.072,0.326-1.511c0.217-0.438,0.512-0.805,0.887-1.103c0.373-0.297,0.811-0.522,1.313-0.676s1.037-0.23,1.607-0.23
		h3.078v2.062h-3.078c-0.346,0.013-0.656,0.074-0.93,0.183c-0.115,0.045-0.23,0.103-0.346,0.173s-0.217,0.156-0.303,0.259
		s-0.156,0.222-0.211,0.359S527.654,410.77,527.654,410.956z"/>
	<path fill="#262626" d="M535.414,413.621c0.031-0.581,0.158-1.096,0.383-1.543c0.096-0.192,0.219-0.381,0.369-0.566
		c0.15-0.185,0.334-0.35,0.551-0.493c0.219-0.145,0.475-0.259,0.773-0.346c0.297-0.086,0.637-0.129,1.02-0.129h1.027
		c0.58,0.031,1.1,0.159,1.553,0.383c0.191,0.097,0.383,0.218,0.57,0.364c0.189,0.147,0.355,0.33,0.498,0.547
		c0.145,0.218,0.262,0.474,0.352,0.768c0.088,0.294,0.133,0.633,0.133,1.016h-2.061c-0.014-0.185-0.059-0.354-0.135-0.508
		c-0.07-0.128-0.172-0.244-0.307-0.35s-0.336-0.158-0.604-0.158h-1.027c-0.191,0.013-0.363,0.054-0.518,0.124
		c-0.127,0.064-0.246,0.165-0.354,0.303c-0.109,0.137-0.164,0.334-0.164,0.589v4.124c0.014,0.191,0.059,0.364,0.135,0.518
		c0.07,0.128,0.172,0.248,0.307,0.359c0.135,0.112,0.332,0.168,0.594,0.168h1.027c0.197-0.013,0.373-0.058,0.527-0.135
		c0.127-0.07,0.246-0.174,0.354-0.312c0.109-0.137,0.164-0.337,0.164-0.599h2.061c-0.025,0.581-0.152,1.1-0.383,1.553
		c-0.096,0.192-0.219,0.383-0.369,0.571s-0.336,0.354-0.557,0.498s-0.477,0.261-0.771,0.351c-0.295,0.089-0.637,0.134-1.025,0.134
		h-1.027c-0.574-0.032-1.09-0.163-1.543-0.394c-0.191-0.096-0.383-0.219-0.57-0.369c-0.189-0.149-0.355-0.334-0.498-0.551
		c-0.145-0.218-0.262-0.474-0.352-0.768s-0.133-0.636-0.133-1.025V413.621z"/>
	<path fill="#262626" d="M548.031,418.79v2.062h-4.123v-2.062h1.045v-8.246h2.063v8.246H548.031z M547.015,408.481h-2.063v-2.062
		h2.063V408.481z"/>
	<path fill="#262626" d="M556.929,413.621c-0.025,0.582-0.152,1.1-0.383,1.554c-0.096,0.192-0.219,0.382-0.369,0.57
		c-0.15,0.189-0.336,0.355-0.557,0.499s-0.477,0.261-0.771,0.35c-0.295,0.09-0.637,0.135-1.025,0.135h-2.063v1.017
		c0.014,0.191,0.059,0.364,0.135,0.518c0.07,0.128,0.172,0.248,0.307,0.359c0.135,0.112,0.332,0.168,0.594,0.168h4.133v2.062h-4.133
		c-0.574-0.032-1.09-0.163-1.543-0.394c-0.191-0.096-0.383-0.219-0.57-0.369c-0.189-0.149-0.355-0.334-0.498-0.551
		c-0.145-0.218-0.262-0.474-0.352-0.768s-0.133-0.636-0.133-1.025v-4.124c0.031-0.581,0.158-1.096,0.383-1.543
		c0.096-0.192,0.219-0.381,0.369-0.566c0.15-0.185,0.334-0.35,0.551-0.493c0.219-0.145,0.475-0.259,0.773-0.346
		c0.297-0.086,0.637-0.129,1.02-0.129h1.027c0.58,0.031,1.1,0.159,1.553,0.383c0.191,0.097,0.383,0.218,0.57,0.364
		c0.189,0.147,0.355,0.33,0.498,0.547c0.145,0.218,0.262,0.474,0.352,0.768C556.885,412.899,556.929,413.238,556.929,413.621z
		 M553.824,414.667c0.197-0.013,0.373-0.058,0.527-0.135c0.127-0.07,0.246-0.174,0.354-0.312c0.109-0.138,0.164-0.337,0.164-0.6
		c0-0.255-0.055-0.452-0.164-0.589c-0.107-0.138-0.227-0.238-0.354-0.303c-0.154-0.07-0.33-0.111-0.527-0.124h-1.027
		c-0.191,0.013-0.363,0.054-0.518,0.124c-0.127,0.064-0.246,0.165-0.354,0.303c-0.109,0.137-0.164,0.334-0.164,0.589v1.046H553.824z
		"/>
	<path fill="#262626" d="M566.308,413.583v7.269h-2.063v-7.211c0-0.262-0.055-0.462-0.162-0.6c-0.109-0.137-0.229-0.241-0.355-0.312
		c-0.154-0.076-0.33-0.118-0.527-0.124h-1.018c-0.262,0-0.461,0.054-0.598,0.163c-0.139,0.108-0.242,0.227-0.313,0.354
		c-0.076,0.153-0.121,0.326-0.135,0.518v7.211h-2.061v-10.308h1.045l1.016,1.035c0-0.262,0.057-0.462,0.168-0.6
		c0.111-0.137,0.232-0.241,0.359-0.312c0.154-0.076,0.326-0.118,0.518-0.124h1.018c0.582,0.025,1.1,0.146,1.553,0.364
		c0.191,0.096,0.383,0.216,0.57,0.359c0.189,0.144,0.355,0.323,0.5,0.537c0.143,0.214,0.26,0.468,0.35,0.762
		C566.263,412.861,566.308,413.199,566.308,413.583z"/>
	<path fill="#262626" d="M568.763,413.621c0.031-0.581,0.158-1.096,0.383-1.543c0.096-0.192,0.219-0.381,0.369-0.566
		c0.15-0.185,0.334-0.35,0.551-0.493c0.219-0.145,0.475-0.259,0.773-0.346c0.297-0.086,0.637-0.129,1.02-0.129h1.027
		c0.58,0.031,1.1,0.159,1.553,0.383c0.191,0.097,0.383,0.218,0.57,0.364c0.189,0.147,0.355,0.33,0.498,0.547
		c0.145,0.218,0.262,0.474,0.352,0.768c0.088,0.294,0.133,0.633,0.133,1.016h-2.061c-0.014-0.185-0.059-0.354-0.135-0.508
		c-0.07-0.128-0.172-0.244-0.307-0.35s-0.336-0.158-0.604-0.158h-1.027c-0.191,0.013-0.363,0.054-0.518,0.124
		c-0.127,0.064-0.246,0.165-0.354,0.303c-0.109,0.137-0.164,0.334-0.164,0.589v4.124c0.014,0.191,0.059,0.364,0.135,0.518
		c0.07,0.128,0.172,0.248,0.307,0.359c0.135,0.112,0.332,0.168,0.594,0.168h1.027c0.197-0.013,0.373-0.058,0.527-0.135
		c0.127-0.07,0.246-0.174,0.354-0.312c0.109-0.137,0.164-0.337,0.164-0.599h2.061c-0.025,0.581-0.152,1.1-0.383,1.553
		c-0.096,0.192-0.219,0.383-0.369,0.571s-0.336,0.354-0.557,0.498s-0.477,0.261-0.771,0.351c-0.295,0.089-0.637,0.134-1.025,0.134
		h-1.027c-0.574-0.032-1.09-0.163-1.543-0.394c-0.191-0.096-0.383-0.219-0.57-0.369c-0.189-0.149-0.355-0.334-0.498-0.551
		c-0.145-0.218-0.262-0.474-0.352-0.768s-0.133-0.636-0.133-1.025V413.621z"/>
	<path fill="#262626" d="M585.179,413.621c-0.025,0.582-0.154,1.1-0.383,1.554c-0.098,0.192-0.221,0.382-0.371,0.57
		c-0.148,0.189-0.334,0.355-0.555,0.499s-0.479,0.261-0.771,0.35c-0.295,0.09-0.637,0.135-1.027,0.135h-2.061v1.017
		c0.012,0.191,0.057,0.364,0.133,0.518c0.07,0.128,0.174,0.248,0.307,0.359c0.135,0.112,0.334,0.168,0.596,0.168h4.133v2.062h-4.133
		c-0.576-0.032-1.09-0.163-1.545-0.394c-0.191-0.096-0.381-0.219-0.57-0.369c-0.188-0.149-0.354-0.334-0.498-0.551
		c-0.145-0.218-0.26-0.474-0.35-0.768s-0.135-0.636-0.135-1.025v-4.124c0.031-0.581,0.16-1.096,0.383-1.543
		c0.098-0.192,0.221-0.381,0.371-0.566c0.148-0.185,0.334-0.35,0.551-0.493c0.217-0.145,0.475-0.259,0.771-0.346
		c0.297-0.086,0.639-0.129,1.021-0.129h1.025c0.582,0.031,1.1,0.159,1.555,0.383c0.191,0.097,0.381,0.218,0.57,0.364
		c0.188,0.147,0.354,0.33,0.498,0.547c0.145,0.218,0.26,0.474,0.35,0.768S585.179,413.238,585.179,413.621z M582.072,414.667
		c0.199-0.013,0.375-0.058,0.527-0.135c0.129-0.07,0.246-0.174,0.355-0.312c0.107-0.138,0.162-0.337,0.162-0.6
		c0-0.255-0.055-0.452-0.162-0.589c-0.109-0.138-0.227-0.238-0.355-0.303c-0.152-0.07-0.328-0.111-0.527-0.124h-1.025
		c-0.191,0.013-0.365,0.054-0.518,0.124c-0.129,0.064-0.246,0.165-0.355,0.303c-0.109,0.137-0.162,0.334-0.162,0.589v1.046H582.072z
		"/>
	<path fill="#262626" d="M603.138,413.113v2.062h-2.061v5.677h-4.133c-0.275,0-0.568-0.028-0.879-0.086
		c-0.309-0.058-0.617-0.152-0.924-0.283s-0.6-0.297-0.879-0.499c-0.277-0.201-0.523-0.444-0.738-0.729
		c-0.213-0.284-0.385-0.615-0.512-0.992c-0.129-0.377-0.191-0.803-0.191-1.275c0-0.665,0.119-1.228,0.359-1.688
		c0.238-0.461,0.537-0.841,0.896-1.142c-0.18-0.159-0.346-0.335-0.5-0.527c-0.152-0.191-0.285-0.405-0.396-0.643
		c-0.113-0.236-0.201-0.493-0.264-0.771c-0.064-0.278-0.096-0.58-0.096-0.906c0-0.473,0.063-0.896,0.191-1.271
		c0.127-0.374,0.299-0.705,0.512-0.992c0.215-0.288,0.461-0.534,0.738-0.738c0.279-0.205,0.572-0.371,0.879-0.499
		s0.615-0.222,0.924-0.283c0.311-0.061,0.604-0.091,0.879-0.091h3.105v2.062h-3.105c-0.053,0-0.141,0.007-0.264,0.02
		c-0.125,0.013-0.264,0.04-0.418,0.081c-0.154,0.042-0.313,0.102-0.475,0.178c-0.162,0.077-0.313,0.183-0.445,0.316
		c-0.135,0.135-0.244,0.301-0.332,0.499c-0.086,0.198-0.129,0.438-0.129,0.719s0.043,0.521,0.129,0.72
		c0.088,0.197,0.197,0.364,0.332,0.498c0.133,0.135,0.283,0.24,0.445,0.316c0.162,0.077,0.32,0.136,0.475,0.178
		c0.154,0.041,0.293,0.067,0.418,0.076c0.123,0.01,0.211,0.015,0.264,0.015H603.138z M599.015,415.174h-2.07
		c-0.053,0-0.141,0.005-0.264,0.015c-0.125,0.01-0.264,0.035-0.418,0.076c-0.154,0.042-0.313,0.102-0.475,0.178
		c-0.162,0.077-0.313,0.183-0.445,0.316c-0.135,0.135-0.244,0.302-0.332,0.504c-0.086,0.201-0.129,0.442-0.129,0.724
		s0.043,0.521,0.129,0.719c0.088,0.198,0.197,0.364,0.332,0.499c0.133,0.134,0.283,0.239,0.445,0.316s0.32,0.136,0.475,0.178
		c0.154,0.041,0.293,0.066,0.418,0.076c0.123,0.01,0.211,0.015,0.264,0.015h2.07V415.174z"/>
	<path fill="#262626" d="M620.715,407.436v13.415h-2.061v-9.521l-3.088,5.417l-3.107-5.417v9.521h-2.061v-13.415h2.061l3.107,5.149
		l3.088-5.149H620.715z"/>
	<path fill="#262626" d="M628.549,410.926c0.191,0.097,0.383,0.218,0.57,0.364c0.189,0.147,0.355,0.33,0.5,0.547
		c0.143,0.218,0.26,0.474,0.35,0.768s0.135,0.633,0.135,1.016v7.23h-1.047l-1.016-1.045c0,0.262-0.055,0.462-0.162,0.599
		c-0.109,0.138-0.229,0.242-0.355,0.313c-0.154,0.076-0.33,0.121-0.527,0.134h-1.016c-0.582-0.032-1.1-0.163-1.555-0.394
		c-0.191-0.096-0.381-0.219-0.57-0.369c-0.189-0.149-0.355-0.334-0.498-0.551c-0.145-0.218-0.262-0.474-0.35-0.768
		c-0.09-0.294-0.135-0.636-0.135-1.025c0-0.384,0.045-0.723,0.135-1.017c0.088-0.294,0.205-0.55,0.35-0.768
		c0.143-0.217,0.309-0.399,0.498-0.546c0.189-0.147,0.379-0.269,0.57-0.364c0.455-0.225,0.973-0.352,1.555-0.384h2.061v-1.046
		c0-0.255-0.055-0.452-0.162-0.589c-0.109-0.138-0.229-0.238-0.355-0.303c-0.154-0.07-0.33-0.111-0.527-0.124h-3.5v-2.062h3.5
		C627.578,410.575,628.095,410.703,628.549,410.926z M628.041,416.728h-2.061c-0.193,0.013-0.365,0.055-0.52,0.124
		c-0.127,0.064-0.246,0.165-0.359,0.303c-0.111,0.138-0.168,0.334-0.168,0.59c0,0.262,0.057,0.462,0.168,0.599
		c0.113,0.138,0.232,0.241,0.359,0.312c0.154,0.077,0.326,0.122,0.52,0.135h1.016c0.197-0.013,0.373-0.058,0.527-0.135
		c0.127-0.07,0.246-0.174,0.355-0.312c0.107-0.137,0.162-0.337,0.162-0.599V416.728z"/>
	<path fill="#262626" d="M635.051,412.605v5.14c0.014,0.191,0.059,0.364,0.135,0.518c0.07,0.128,0.174,0.248,0.311,0.359
		c0.139,0.112,0.338,0.168,0.6,0.168h1.018v2.062h-1.018c-0.582-0.032-1.1-0.163-1.553-0.394c-0.191-0.096-0.383-0.219-0.57-0.369
		c-0.189-0.149-0.355-0.334-0.5-0.551c-0.143-0.218-0.26-0.474-0.35-0.768s-0.133-0.636-0.133-1.025v-5.14h-1.027v-0.633
		l2.436-3.491h0.652v2.063h2.063v2.062H635.051z"/>
	<path fill="#262626" d="M644.734,410.926c0.193,0.097,0.381,0.218,0.566,0.364c0.186,0.147,0.35,0.33,0.494,0.547
		c0.143,0.218,0.26,0.474,0.35,0.768s0.135,0.633,0.135,1.016v7.23h-2.063v-7.23c0-0.255-0.053-0.452-0.158-0.589
		c-0.105-0.138-0.223-0.238-0.35-0.303c-0.154-0.07-0.326-0.111-0.518-0.124h-2.063v8.246h-2.061v-14.47h2.061v4.162h2.063
		C643.765,410.575,644.281,410.703,644.734,410.926z"/>
	<path fill="#262626" d="M656.166,413.621c-0.025,0.582-0.154,1.1-0.383,1.554c-0.098,0.192-0.221,0.382-0.371,0.57
		c-0.148,0.189-0.334,0.355-0.555,0.499s-0.479,0.261-0.771,0.35c-0.295,0.09-0.637,0.135-1.027,0.135h-2.061v1.017
		c0.012,0.191,0.057,0.364,0.133,0.518c0.07,0.128,0.174,0.248,0.307,0.359c0.135,0.112,0.334,0.168,0.596,0.168h4.133v2.062h-4.133
		c-0.576-0.032-1.09-0.163-1.545-0.394c-0.191-0.096-0.381-0.219-0.57-0.369c-0.188-0.149-0.354-0.334-0.498-0.551
		c-0.145-0.218-0.26-0.474-0.35-0.768s-0.135-0.636-0.135-1.025v-4.124c0.031-0.581,0.16-1.096,0.383-1.543
		c0.098-0.192,0.221-0.381,0.371-0.566c0.148-0.185,0.334-0.35,0.551-0.493c0.217-0.145,0.475-0.259,0.771-0.346
		c0.297-0.086,0.639-0.129,1.021-0.129h1.025c0.582,0.031,1.1,0.159,1.555,0.383c0.191,0.097,0.381,0.218,0.57,0.364
		c0.188,0.147,0.354,0.33,0.498,0.547c0.145,0.218,0.26,0.474,0.35,0.768S656.166,413.238,656.166,413.621z M653.058,414.667
		c0.199-0.013,0.375-0.058,0.527-0.135c0.129-0.07,0.246-0.174,0.355-0.312c0.107-0.138,0.162-0.337,0.162-0.6
		c0-0.255-0.055-0.452-0.162-0.589c-0.109-0.138-0.227-0.238-0.355-0.303c-0.152-0.07-0.328-0.111-0.527-0.124h-1.025
		c-0.191,0.013-0.365,0.054-0.518,0.124c-0.129,0.064-0.246,0.165-0.355,0.303c-0.109,0.137-0.162,0.334-0.162,0.589v1.046H653.058z
		"/>
	<path fill="#262626" d="M665.543,410.543c0.383,0,0.723,0.043,1.016,0.129c0.295,0.087,0.551,0.201,0.768,0.346
		c0.217,0.144,0.402,0.309,0.553,0.493c0.148,0.186,0.271,0.374,0.369,0.566c0.223,0.447,0.352,0.962,0.383,1.543v7.23h-2.063v-7.23
		c-0.012-0.185-0.053-0.354-0.123-0.508c-0.064-0.128-0.166-0.244-0.303-0.35c-0.139-0.105-0.338-0.158-0.6-0.158
		s-0.461,0.053-0.6,0.158c-0.137,0.105-0.24,0.222-0.311,0.35c-0.078,0.153-0.123,0.323-0.135,0.508v7.23h-2.063v-7.23
		c0-0.255-0.053-0.452-0.158-0.589c-0.105-0.138-0.221-0.238-0.35-0.303c-0.152-0.07-0.322-0.111-0.508-0.124
		c-0.262,0-0.463,0.053-0.6,0.158s-0.24,0.222-0.311,0.35c-0.078,0.153-0.123,0.323-0.135,0.508v7.23h-2.063v-10.308h1.045
		l1.018,1.016c0-0.255,0.055-0.452,0.168-0.589c0.111-0.138,0.23-0.238,0.359-0.303c0.152-0.07,0.326-0.111,0.518-0.124
		c0.301,0.013,0.578,0.07,0.834,0.172c0.225,0.09,0.445,0.226,0.662,0.408c0.217,0.182,0.373,0.445,0.469,0.791
		c0.045-0.179,0.115-0.351,0.211-0.514c0.098-0.163,0.229-0.308,0.398-0.436s0.381-0.23,0.633-0.308
		C664.879,410.582,665.185,410.543,665.543,410.543z"/>
	<path fill="#262626" d="M676.369,410.926c0.191,0.097,0.381,0.218,0.57,0.364c0.188,0.147,0.355,0.33,0.498,0.547
		c0.145,0.218,0.26,0.474,0.35,0.768s0.135,0.633,0.135,1.016v7.23h-1.045l-1.016-1.045c0,0.262-0.055,0.462-0.164,0.599
		c-0.109,0.138-0.227,0.242-0.355,0.313c-0.152,0.076-0.328,0.121-0.527,0.134h-1.016c-0.582-0.032-1.1-0.163-1.553-0.394
		c-0.193-0.096-0.383-0.219-0.57-0.369c-0.189-0.149-0.355-0.334-0.5-0.551c-0.143-0.218-0.26-0.474-0.35-0.768
		s-0.135-0.636-0.135-1.025c0-0.384,0.045-0.723,0.135-1.017s0.207-0.55,0.35-0.768c0.145-0.217,0.311-0.399,0.5-0.546
		c0.188-0.147,0.377-0.269,0.57-0.364c0.453-0.225,0.971-0.352,1.553-0.384h2.063v-1.046c0-0.255-0.055-0.452-0.164-0.589
		c-0.109-0.138-0.227-0.238-0.355-0.303c-0.152-0.07-0.328-0.111-0.527-0.124h-3.5v-2.062h3.5
		C675.396,410.575,675.914,410.703,676.369,410.926z M675.861,416.728h-2.063c-0.191,0.013-0.365,0.055-0.518,0.124
		c-0.129,0.064-0.248,0.165-0.359,0.303c-0.113,0.138-0.168,0.334-0.168,0.59c0,0.262,0.055,0.462,0.168,0.599
		c0.111,0.138,0.23,0.241,0.359,0.312c0.152,0.077,0.326,0.122,0.518,0.135h1.016c0.199-0.013,0.375-0.058,0.527-0.135
		c0.129-0.07,0.246-0.174,0.355-0.312c0.109-0.137,0.164-0.337,0.164-0.599V416.728z"/>
	<path fill="#262626" d="M682.871,412.605v5.14c0.012,0.191,0.057,0.364,0.133,0.518c0.07,0.128,0.174,0.248,0.313,0.359
		c0.137,0.112,0.336,0.168,0.6,0.168h1.016v2.062h-1.016c-0.582-0.032-1.1-0.163-1.555-0.394c-0.191-0.096-0.381-0.219-0.57-0.369
		c-0.188-0.149-0.354-0.334-0.498-0.551c-0.145-0.218-0.26-0.474-0.35-0.768s-0.135-0.636-0.135-1.025v-5.14h-1.025v-0.633
		l2.436-3.491h0.652v2.063h2.061v2.062H682.871z"/>
	<path fill="#262626" d="M690.129,418.79v2.062h-4.123v-2.062h1.045v-8.246h2.063v8.246H690.129z M689.113,408.481h-2.063v-2.062
		h2.063V408.481z"/>
	<path fill="#262626" d="M691.797,413.621c0.031-0.581,0.16-1.096,0.383-1.543c0.098-0.192,0.221-0.381,0.371-0.566
		c0.148-0.185,0.334-0.35,0.551-0.493c0.217-0.145,0.475-0.259,0.771-0.346c0.297-0.086,0.639-0.129,1.021-0.129h1.025
		c0.582,0.031,1.1,0.159,1.555,0.383c0.191,0.097,0.381,0.218,0.57,0.364c0.188,0.147,0.354,0.33,0.498,0.547
		c0.145,0.218,0.26,0.474,0.35,0.768s0.135,0.633,0.135,1.016h-2.063c-0.012-0.185-0.057-0.354-0.133-0.508
		c-0.07-0.128-0.174-0.244-0.307-0.35c-0.135-0.105-0.336-0.158-0.605-0.158h-1.025c-0.191,0.013-0.365,0.054-0.518,0.124
		c-0.129,0.064-0.246,0.165-0.355,0.303c-0.109,0.137-0.162,0.334-0.162,0.589v4.124c0.012,0.191,0.057,0.364,0.133,0.518
		c0.07,0.128,0.174,0.248,0.307,0.359c0.135,0.112,0.334,0.168,0.596,0.168h1.025c0.199-0.013,0.375-0.058,0.527-0.135
		c0.129-0.07,0.246-0.174,0.355-0.312c0.107-0.137,0.162-0.337,0.162-0.599h2.063c-0.025,0.581-0.154,1.1-0.383,1.553
		c-0.098,0.192-0.221,0.383-0.371,0.571c-0.148,0.188-0.334,0.354-0.555,0.498s-0.479,0.261-0.771,0.351
		c-0.295,0.089-0.637,0.134-1.027,0.134h-1.025c-0.576-0.032-1.09-0.163-1.545-0.394c-0.191-0.096-0.381-0.219-0.57-0.369
		c-0.188-0.149-0.354-0.334-0.498-0.551c-0.145-0.218-0.26-0.474-0.35-0.768s-0.135-0.636-0.135-1.025V413.621z"/>
	<path fill="#262626" d="M701.117,420.851v-2.062h3.5c0.193-0.013,0.365-0.058,0.518-0.135c0.129-0.07,0.246-0.174,0.355-0.312
		c0.109-0.137,0.164-0.337,0.164-0.599c0-0.18-0.074-0.328-0.221-0.446c-0.148-0.118-0.344-0.222-0.586-0.312
		s-0.52-0.176-0.83-0.259c-0.309-0.083-0.623-0.179-0.943-0.288c-0.32-0.108-0.635-0.239-0.945-0.393
		c-0.309-0.153-0.586-0.347-0.828-0.58c-0.244-0.233-0.439-0.515-0.586-0.844c-0.146-0.33-0.221-0.728-0.221-1.194
		c0-0.364,0.045-0.683,0.135-0.954s0.207-0.508,0.35-0.71c0.145-0.201,0.311-0.372,0.498-0.513c0.189-0.141,0.379-0.256,0.572-0.345
		c0.453-0.211,0.967-0.333,1.543-0.364h3.5v2.062h-3.5c-0.191,0.013-0.365,0.054-0.518,0.124c-0.129,0.064-0.246,0.165-0.355,0.303
		c-0.107,0.137-0.162,0.334-0.162,0.589c0,0.18,0.072,0.33,0.221,0.451c0.146,0.121,0.342,0.229,0.584,0.321
		c0.244,0.093,0.52,0.181,0.83,0.264s0.625,0.181,0.943,0.292c0.32,0.112,0.635,0.245,0.945,0.398s0.586,0.347,0.83,0.58
		c0.242,0.233,0.438,0.515,0.584,0.844s0.221,0.728,0.221,1.193c0,0.358-0.045,0.675-0.135,0.95c-0.09,0.274-0.205,0.513-0.35,0.714
		c-0.143,0.201-0.309,0.372-0.494,0.513s-0.373,0.256-0.564,0.346c-0.455,0.211-0.973,0.332-1.555,0.364H701.117z"/>
</g>
<path fill="#D31245" d="M280.284,230.582c0.004,6.556,0.813,13.637-1.379,20.102c-0.038,0.22-0.152,1.411-0.558,2.442
	c-6.709,36.757-30.009,72.229-57.514,88.106c-32.358,18.684-59.367,1.113-60.651-39.844c-1.308-41.837,24.61-92.669,58.233-112.916
	C252.415,168,280.272,187.151,280.284,230.582z M218.444,190.101c-32.937,19.821-58.322,69.59-57.057,110.576
	c1.243,40.152,27.707,57.375,59.432,39.055c8.397-4.852,16.216-11.539,23.443-19.822c-0.111,0-0.365-0.207-0.222-0.375
	c20.121-23.313,35.015-57.708,34.992-88.218C279.001,188.797,251.731,170.055,218.444,190.101z"/>
<path fill="#D31245" d="M283.308,218.332c-7.248,46.25-39.353,93.794-71.644,107.07c-32.045,13.174-53.271-11.99-47.496-57.027
	c5.91-46.105,37.787-95.871,71.313-110.264C269.276,143.587,290.726,170.968,283.308,218.332z M235.237,159.88
	c-12.638,5.426-24.792,16.547-35.598,30.059c-17.267,21.589-30.702,50.154-34.265,77.936c-5.676,44.134,15.111,68.794,46.523,55.892
	c31.641-13.004,63.096-59.623,70.172-104.916C289.335,172.485,268.325,145.682,235.237,159.88z"/>
<path fill="#820022" d="M284.46,233.18c0.002,42.402-26.754,91.547-59.434,110.379c-32.33,18.637-59.307,1.103-60.555-39.759
	c-1.283-41.722,24.616-92.426,58.213-112.625C256.642,170.761,284.46,189.86,284.46,233.18z M222.704,192.792
	c-32.896,19.77-58.271,69.419-57.037,110.301c1.217,40.056,27.644,57.234,59.351,38.966c30.069-17.349,54.791-60.999,57.696-100.635
	c0.074-1.013,0.345-1.898,0.39-2.905c0.067-1.542,0.104-3.076,0.104-4.602C283.196,191.511,255.954,172.816,222.704,192.792z"/>
<g>
	<path fill="#820022" d="M245.819,323.147c5.738,13.565,4.549,27.177-2.674,30.396c-7.226,3.232-17.73-5.133-23.48-18.69
		c-5.735-13.563-4.541-27.17,2.678-30.397C229.563,301.218,240.077,309.589,245.819,323.147z"/>
	<path fill="#830022" d="M245.753,323.089c5.719,13.514,4.536,27.07-2.658,30.279c-7.196,3.221-17.662-5.109-23.393-18.615
		c-5.716-13.508-4.527-27.063,2.663-30.28C229.558,301.248,240.032,309.583,245.753,323.089z"/>
	<path fill="#840023" d="M245.688,323.031c5.698,13.459,4.521,26.965-2.645,30.162c-7.167,3.21-17.594-5.086-23.303-18.538
		c-5.695-13.454-4.514-26.956,2.647-30.163C229.552,301.278,239.986,309.58,245.688,323.031z"/>
	<path fill="#840023" d="M245.622,322.974c5.678,13.406,4.508,26.857-2.628,30.045c-7.138,3.199-17.524-5.063-23.214-18.461
		c-5.675-13.4-4.5-26.852,2.633-30.047C229.546,301.308,239.941,309.576,245.622,322.974z"/>
	<path fill="#850023" d="M245.556,322.916c5.656,13.353,4.494,26.752-2.613,29.928c-7.11,3.189-17.458-5.039-23.126-18.385
		c-5.655-13.348-4.487-26.746,2.618-29.93C229.54,301.337,239.895,309.571,245.556,322.916z"/>
	<path fill="#860024" d="M245.49,322.857c5.637,13.299,4.48,26.646-2.599,29.813c-7.082,3.176-17.39-5.019-23.037-18.31
		c-5.634-13.294-4.474-26.64,2.603-29.813C229.535,301.369,239.849,309.567,245.49,322.857z"/>
	<path fill="#860024" d="M245.424,322.8c5.616,13.244,4.468,26.539-2.583,29.693c-7.052,3.166-17.319-4.994-22.947-18.23
		c-5.614-13.241-4.459-26.534,2.587-29.695C229.529,301.398,239.804,309.563,245.424,322.8z"/>
	<path fill="#870024" d="M245.358,322.742c5.596,13.19,4.454,26.434-2.569,29.576c-7.022,3.153-17.252-4.971-22.858-18.154
		c-5.595-13.188-4.447-26.428,2.571-29.578C229.522,301.427,239.758,309.559,245.358,322.742z"/>
	<path fill="#880025" d="M245.292,322.684c5.576,13.138,4.44,26.328-2.553,29.46c-6.995,3.143-17.184-4.947-22.771-18.078
		c-5.574-13.133-4.434-26.32,2.557-29.461C229.517,301.458,239.713,309.554,245.292,322.684z"/>
	<path fill="#880025" d="M245.227,322.626c5.555,13.084,4.426,26.222-2.539,29.342c-6.966,3.132-17.115-4.924-22.683-18.002
		c-5.553-13.079-4.419-26.215,2.542-29.344C229.511,301.487,239.667,309.55,245.227,322.626z"/>
	<path fill="#890025" d="M245.161,322.567c5.535,13.031,4.413,26.116-2.522,29.226c-6.938,3.121-17.048-4.899-22.595-17.924
		c-5.532-13.025-4.404-26.109,2.527-29.227C229.505,301.519,239.622,309.546,245.161,322.567z"/>
	<path fill="#8A0026" d="M245.095,322.511c5.515,12.977,4.398,26.009-2.509,29.107c-6.908,3.108-16.979-4.879-22.505-17.849
		c-5.512-12.974-4.392-26.003,2.513-29.108C229.5,301.548,239.577,309.541,245.095,322.511z"/>
	<path fill="#8B0026" d="M245.029,322.453c5.495,12.922,4.386,25.902-2.493,28.989c-6.88,3.099-16.91-4.854-22.416-17.771
		c-5.492-12.92-4.378-25.897,2.497-28.992C229.494,301.578,239.531,309.537,245.029,322.453z"/>
	<path fill="#8B0026" d="M244.963,322.395c5.475,12.869,4.372,25.797-2.478,28.873c-6.853,3.087-16.843-4.831-22.328-17.694
		c-5.472-12.863-4.365-25.791,2.482-28.873C229.488,301.608,239.485,309.533,244.963,322.395z"/>
	<path fill="#8C0026" d="M244.897,322.335c5.454,12.816,4.357,25.691-2.463,28.756c-6.823,3.076-16.774-4.807-22.239-17.616
		c-5.452-12.812-4.351-25.685,2.467-28.757C229.482,301.638,239.439,309.528,244.897,322.335z"/>
	<path fill="#8D0027" d="M244.832,322.278c5.434,12.763,4.344,25.585-2.448,28.64c-6.795,3.064-16.705-4.785-22.149-17.541
		c-5.431-12.758-4.337-25.578,2.452-28.641C229.476,301.667,239.394,309.523,244.832,322.278z"/>
	<path fill="#8D0027" d="M244.766,322.221c5.413,12.709,4.331,25.479-2.434,28.521c-6.766,3.055-16.638-4.761-22.061-17.464
		c-5.411-12.704-4.324-25.473,2.437-28.522C229.47,301.699,239.349,309.52,244.766,322.221z"/>
	<path fill="#8E0027" d="M244.7,322.162c5.394,12.655,4.317,25.373-2.417,28.405c-6.737,3.042-16.569-4.737-21.973-17.388
		c-5.392-12.65-4.311-25.366,2.422-28.406C229.464,301.728,239.303,309.515,244.7,322.162z"/>
	<path fill="#8F0028" d="M244.634,322.104c5.372,12.603,4.304,25.267-2.402,28.287c-6.708,3.03-16.5-4.716-21.884-17.31
		c-5.37-12.599-4.298-25.262,2.406-28.289C229.458,301.757,239.258,309.511,244.634,322.104z"/>
	<path fill="#900028" d="M244.568,322.046c5.352,12.549,4.29,25.162-2.388,28.17c-6.681,3.021-16.433-4.69-21.796-17.232
		c-5.35-12.544-4.283-25.154,2.393-28.172C229.453,301.789,239.212,309.507,244.568,322.046z"/>
	<path fill="#900028" d="M244.502,321.988c5.332,12.495,4.276,25.055-2.373,28.053c-6.65,3.01-16.363-4.668-21.707-17.156
		c-5.33-12.489-4.27-25.049,2.377-28.055C229.447,301.817,239.166,309.501,244.502,321.988z"/>
	<path fill="#910028" d="M244.437,321.931c5.312,12.439,4.263,24.947-2.358,27.936c-6.622,2.998-16.296-4.646-21.618-17.08
		c-5.309-12.436-4.256-24.941,2.362-27.938C229.441,301.848,239.121,309.498,244.437,321.931z"/>
	<path fill="#920129" d="M244.371,321.873c5.292,12.387,4.249,24.842-2.342,27.818c-6.594,2.986-16.229-4.622-21.529-17.003
		c-5.289-12.383-4.243-24.837,2.348-27.819C229.436,301.878,239.075,309.494,244.371,321.873z"/>
	<path fill="#920129" d="M244.305,321.815c5.271,12.333,4.234,24.735-2.328,27.701c-6.565,2.976-16.159-4.599-21.44-16.927
		c-5.269-12.33-4.229-24.73,2.332-27.703C229.43,301.908,239.03,309.49,244.305,321.815z"/>
	<path fill="#930129" d="M244.239,321.757c5.25,12.279,4.222,24.631-2.313,27.584c-6.535,2.965-16.09-4.575-21.351-16.85
		c-5.249-12.275-4.216-24.623,2.316-27.587C229.424,301.938,238.985,309.484,244.239,321.757z"/>
	<path fill="#94022A" d="M244.173,321.699c5.23,12.227,4.208,24.524-2.298,27.467c-6.507,2.953-16.021-4.553-21.263-16.771
		c-5.229-12.223-4.202-24.52,2.302-27.471C229.418,301.968,238.938,309.48,244.173,321.699z"/>
	<path fill="#95022A" d="M244.107,321.641c5.209,12.173,4.193,24.419-2.283,27.351c-6.479,2.942-15.954-4.529-21.174-16.695
		c-5.208-12.168-4.188-24.412,2.287-27.353C229.412,301.998,238.894,309.477,244.107,321.641z"/>
	<path fill="#95032A" d="M244.042,321.583c5.189,12.119,4.182,24.313-2.267,27.231c-6.451,2.933-15.886-4.506-21.086-16.619
		c-5.188-12.114-4.175-24.306,2.271-27.233C229.406,302.028,238.848,309.472,244.042,321.583z"/>
	<path fill="#96032A" d="M243.976,321.524c5.168,12.065,4.167,24.207-2.252,27.116c-6.422,2.92-15.817-4.482-20.997-16.543
		c-5.167-12.061-4.161-24.2,2.257-27.117C229.4,302.059,238.802,309.466,243.976,321.524z"/>
	<path fill="#97042B" d="M243.91,321.466c5.149,12.014,4.153,24.102-2.238,26.998c-6.393,2.91-15.749-4.459-20.907-16.465
		c-5.147-12.008-4.148-24.095,2.241-27C229.395,302.087,238.757,309.462,243.91,321.466z"/>
	<path fill="#97042B" d="M243.844,321.41c5.128,11.959,4.139,23.993-2.224,26.881c-6.365,2.897-15.681-4.437-20.819-16.39
		c-5.127-11.952-4.134-23.987,2.228-26.883C229.389,302.119,238.711,309.458,243.844,321.41z"/>
	<path fill="#98052B" d="M243.778,321.352c5.108,11.903,4.126,23.888-2.208,26.765c-6.335,2.887-15.612-4.414-20.73-16.313
		c-5.105-11.899-4.12-23.882,2.211-26.767C229.383,302.148,238.666,309.455,243.778,321.352z"/>
	<path fill="#99052C" d="M243.713,321.294c5.087,11.851,4.112,23.781-2.191,26.646c-6.308,2.875-15.544-4.39-20.643-16.235
		c-5.086-11.847-4.106-23.774,2.196-26.648C229.377,302.179,238.62,309.451,243.713,321.294z"/>
	<path fill="#9A062C" d="M243.646,321.235c5.066,11.798,4.099,23.677-2.177,26.529c-6.278,2.864-15.477-4.366-20.554-16.158
		c-5.065-11.793-4.094-23.67,2.182-26.532C229.372,302.208,238.575,309.445,243.646,321.235z"/>
	<path fill="#9A062C" d="M243.581,321.177c5.047,11.744,4.085,23.57-2.162,26.412c-6.25,2.854-15.407-4.344-20.465-16.082
		c-5.045-11.738-4.08-23.563,2.167-26.414C229.366,302.238,238.529,309.441,243.581,321.177z"/>
	<path fill="#9B072C" d="M243.515,321.121c5.025,11.689,4.07,23.463-2.147,26.295c-6.221,2.842-15.339-4.32-20.376-16.006
		c-5.025-11.686-4.066-23.457,2.152-26.298C229.36,302.269,238.483,309.438,243.515,321.121z"/>
	<path fill="#9C072D" d="M243.449,321.062c5.006,11.637,4.058,23.357-2.132,26.178c-6.192,2.83-15.271-4.297-20.287-15.929
		c-5.004-11.632-4.053-23.353,2.137-26.181C229.354,302.298,238.438,309.433,243.449,321.062z"/>
	<path fill="#9D082D" d="M243.383,321.003c4.986,11.584,4.045,23.252-2.116,26.062c-6.164,2.819-15.203-4.272-20.199-15.853
		c-4.984-11.578-4.04-23.244,2.122-26.063C229.348,302.328,238.393,309.429,243.383,321.003z"/>
	<path fill="#9D082D" d="M243.318,320.945c4.965,11.53,4.03,23.146-2.104,25.944c-6.135,2.81-15.134-4.251-20.109-15.774
		c-4.964-11.525-4.026-23.14,2.105-25.945C229.342,302.358,238.348,309.425,243.318,320.945z"/>
	<path fill="#9E092D" d="M243.251,320.888c4.946,11.477,4.018,23.04-2.087,25.826c-6.105,2.798-15.065-4.229-20.021-15.698
		c-4.943-11.472-4.013-23.032,2.092-25.828C229.337,302.389,238.301,309.419,243.251,320.888z"/>
	<path fill="#9F092E" d="M243.186,320.83c4.925,11.422,4.003,22.935-2.072,25.709c-6.078,2.787-14.998-4.203-19.933-15.621
		c-4.924-11.418-3.999-22.928,2.075-25.711C229.331,302.417,238.255,309.416,243.186,320.83z"/>
	<path fill="#A00A2E" d="M243.12,320.771c4.904,11.369,3.989,22.828-2.058,25.593c-6.048,2.774-14.93-4.181-19.843-15.545
		c-4.903-11.364-3.985-22.821,2.061-25.594C229.325,302.449,238.21,309.412,243.12,320.771z"/>
	<path fill="#A00A2E" d="M243.054,320.714c4.885,11.314,3.976,22.722-2.042,25.476c-6.021,2.765-14.861-4.157-19.756-15.469
		c-4.882-11.31-3.971-22.714,2.048-25.478C229.319,302.479,238.165,309.408,243.054,320.714z"/>
	<path fill="#A10B2E" d="M242.988,320.656c4.864,11.262,3.962,22.615-2.027,25.357c-5.991,2.753-14.793-4.135-19.667-15.393
		c-4.861-11.256-3.958-22.607,2.032-25.358C229.313,302.509,238.12,309.402,242.988,320.656z"/>
	<path fill="#A20C2F" d="M242.922,320.598c4.844,11.209,3.948,22.51-2.012,25.241c-5.963,2.74-14.725-4.111-19.578-15.315
		c-4.841-11.202-3.943-22.502,2.018-25.241C229.307,302.539,238.074,309.397,242.922,320.598z"/>
	<path fill="#A30C2F" d="M242.856,320.541c4.823,11.153,3.935,22.402-1.997,25.123c-5.936,2.729-14.656-4.088-19.489-15.238
		c-4.822-11.148-3.931-22.396,2.001-25.125C229.302,302.568,238.028,309.394,242.856,320.541z"/>
	<path fill="#A30D2F" d="M242.791,320.482c4.804,11.102,3.921,22.297-1.98,25.006c-5.906,2.719-14.588-4.064-19.401-15.16
		c-4.801-11.096-3.917-22.291,1.986-25.009C229.296,302.599,237.983,309.39,242.791,320.482z"/>
	<path fill="#A40D30" d="M242.725,320.425c4.782,11.047,3.907,22.191-1.968,24.889c-5.877,2.708-14.52-4.042-19.312-15.085
		c-4.781-11.041-3.904-22.185,1.972-24.892C229.29,302.628,237.937,309.386,242.725,320.425z"/>
	<path fill="#A50E30" d="M242.659,320.367c4.762,10.992,3.895,22.084-1.952,24.771c-5.848,2.695-14.451-4.02-19.223-15.01
		c-4.76-10.986-3.89-22.078,1.957-24.772C229.284,302.658,237.892,309.38,242.659,320.367z"/>
	<path fill="#A60E30" d="M242.593,320.309c4.742,10.94,3.881,21.979-1.937,24.653c-5.819,2.687-14.383-3.994-19.134-14.93
		c-4.74-10.936-3.876-21.973,1.94-24.656C229.278,302.688,237.846,309.376,242.593,320.309z"/>
	<path fill="#A60F30" d="M242.528,320.25c4.722,10.889,3.867,21.875-1.922,24.539c-5.791,2.674-14.314-3.973-19.046-14.854
		c-4.721-10.882-3.863-21.866,1.927-24.54C229.273,302.718,237.801,309.373,242.528,320.25z"/>
	<path fill="#A70F31" d="M242.461,320.192c4.701,10.833,3.854,21.769-1.905,24.421c-5.763,2.662-14.247-3.949-18.958-14.777
		c-4.699-10.826-3.85-21.76,1.911-24.422C229.267,302.748,237.755,309.367,242.461,320.192z"/>
	<path fill="#A81031" d="M242.396,320.134c4.681,10.779,3.839,21.66-1.893,24.304c-5.733,2.651-14.178-3.926-18.869-14.701
		c-4.679-10.772-3.835-21.653,1.896-24.305C229.261,302.778,237.709,309.363,242.396,320.134z"/>
	<path fill="#A91031" d="M242.33,320.076c4.661,10.727,3.825,21.557-1.877,24.188c-5.705,2.641-14.108-3.902-18.779-14.624
		c-4.658-10.72-3.821-21.548,1.882-24.188C229.255,302.809,237.664,309.359,242.33,320.076z"/>
	<path fill="#A91031" d="M242.264,320.019c4.64,10.673,3.812,21.449-1.861,24.068c-5.676,2.631-14.042-3.879-18.691-14.547
		c-4.639-10.666-3.809-21.441,1.866-24.07C229.25,302.839,237.619,309.355,242.264,320.019z"/>
	<path fill="#AA1132" d="M242.198,319.96c4.62,10.619,3.798,21.344-1.847,23.953c-5.647,2.617-13.974-3.856-18.603-14.472
		c-4.618-10.612-3.795-21.336,1.852-23.954C229.243,302.869,237.573,309.351,242.198,319.96z"/>
	<path fill="#AB1132" d="M242.132,319.902c4.601,10.564,3.785,21.237-1.832,23.835c-5.618,2.606-13.904-3.833-18.514-14.396
		c-4.597-10.559-3.782-21.229,1.836-23.834C229.237,302.898,237.527,309.346,242.132,319.902z"/>
	<path fill="#AC1232" d="M242.066,319.845c4.579,10.512,3.771,21.131-1.816,23.718c-5.591,2.597-13.837-3.81-18.425-14.317
		c-4.578-10.504-3.769-21.123,1.821-23.719C229.232,302.929,237.482,309.341,242.066,319.845z"/>
	<path fill="#AC1232" d="M242.001,319.787c4.56,10.459,3.757,21.024-1.801,23.602c-5.562,2.585-13.768-3.787-18.336-14.241
		c-4.557-10.451-3.755-21.017,1.806-23.603C229.227,302.958,237.437,309.337,242.001,319.787z"/>
	<path fill="#AD1333" d="M241.935,319.729c4.539,10.403,3.744,20.918-1.787,23.481c-5.533,2.574-13.7-3.762-18.248-14.162
		c-4.537-10.398-3.741-20.912,1.792-23.485C229.22,302.99,237.391,309.333,241.935,319.729z"/>
	<path fill="#AE1333" d="M241.869,319.671c4.519,10.351,3.73,20.813-1.771,23.365c-5.504,2.563-13.632-3.74-18.159-14.086
		c-4.517-10.346-3.728-20.807,1.775-23.367C229.214,303.019,237.345,309.328,241.869,319.671z"/>
	<path fill="#AF1433" d="M241.803,319.613c4.497,10.297,3.717,20.706-1.757,23.248c-5.476,2.553-13.563-3.716-18.069-14.01
		c-4.496-10.291-3.713-20.699,1.761-23.25C229.208,303.048,237.3,309.324,241.803,319.613z"/>
	<path fill="#AF1433" d="M241.738,319.555c4.477,10.243,3.703,20.601-1.741,23.132c-5.447,2.541-13.495-3.693-17.98-13.934
		c-4.477-10.236-3.701-20.594,1.746-23.133C229.203,303.08,237.254,309.32,241.738,319.555z"/>
	<path fill="#B01434" d="M241.671,319.498c4.457,10.188,3.689,20.494-1.726,23.015c-5.418,2.528-13.426-3.671-17.893-13.856
		c-4.456-10.185-3.688-20.486,1.73-23.017C229.197,303.109,237.209,309.316,241.671,319.498z"/>
	<path fill="#B11534" d="M241.605,319.438c4.437,10.138,3.676,20.39-1.711,22.897c-5.391,2.519-13.358-3.646-17.805-13.779
		c-4.435-10.131-3.673-20.381,1.717-22.898C229.191,303.139,237.163,309.312,241.605,319.438z"/>
	<path fill="#B21534" d="M241.54,319.38c4.416,10.084,3.662,20.283-1.695,22.781c-5.361,2.506-13.29-3.625-17.716-13.703
		c-4.414-10.076-3.659-20.274,1.701-22.781C229.185,303.169,237.118,309.307,241.54,319.38z"/>
	<path fill="#B21634" d="M241.474,319.324c4.396,10.028,3.647,20.176-1.682,22.662c-5.332,2.495-13.221-3.602-17.626-13.627
		c-4.395-10.021-3.646-20.168,1.687-22.663C229.18,303.199,237.072,309.303,241.474,319.324z"/>
	<path fill="#B31635" d="M241.408,319.266c4.376,9.976,3.634,20.069-1.666,22.546c-5.303,2.484-13.153-3.578-17.538-13.55
		c-4.374-9.97-3.633-20.063,1.67-22.548C229.174,303.229,237.026,309.298,241.408,319.266z"/>
	<path fill="#B41635" d="M241.342,319.207c4.355,9.922,3.621,19.965-1.65,22.43c-5.275,2.474-13.085-3.555-17.45-13.473
		c-4.354-9.916-3.618-19.957,1.656-22.431C229.167,303.259,236.981,309.294,241.342,319.207z"/>
	<path fill="#B51735" d="M241.276,319.149c4.335,9.869,3.606,19.858-1.636,22.312c-5.246,2.463-13.018-3.53-17.36-13.396
		c-4.333-9.86-3.605-19.851,1.641-22.313C229.162,303.289,236.936,309.291,241.276,319.149z"/>
	<path fill="#B61735" d="M241.211,319.091c4.315,9.814,3.595,19.753-1.621,22.195c-5.217,2.449-12.947-3.509-17.271-13.32
		c-4.313-9.809-3.592-19.744,1.625-22.194C229.156,303.319,236.89,309.287,241.211,319.091z"/>
	<path fill="#B61835" d="M241.145,319.033c4.294,9.762,3.58,19.646-1.606,22.077c-5.188,2.438-12.88-3.483-17.183-13.241
		c-4.293-9.756-3.578-19.64,1.609-22.078C229.15,303.349,236.844,309.281,241.145,319.033z"/>
	<path fill="#B71836" d="M241.079,318.976c4.274,9.708,3.566,19.54-1.591,21.96c-5.16,2.429-12.813-3.461-17.094-13.166
		c-4.272-9.701-3.565-19.532,1.595-21.961C229.145,303.378,236.799,309.276,241.079,318.976z"/>
	<path fill="#B81836" d="M241.013,318.917c4.254,9.654,3.553,19.435-1.576,21.844c-5.131,2.416-12.743-3.438-17.006-13.09
		c-4.252-9.647-3.552-19.426,1.581-21.844C229.139,303.41,236.753,309.272,241.013,318.917z"/>
	<path fill="#B91936" d="M240.947,318.859c4.233,9.602,3.539,19.328-1.561,21.727c-5.104,2.406-12.676-3.414-16.917-13.014
		c-4.231-9.593-3.538-19.318,1.564-21.727C229.133,303.438,236.708,309.268,240.947,318.859z"/>
	<path fill="#B91936" d="M240.881,318.802c4.214,9.547,3.525,19.222-1.545,21.607c-5.073,2.396-12.606-3.392-16.829-12.936
		c-4.211-9.54-3.523-19.215,1.552-21.609C229.127,303.468,236.663,309.264,240.881,318.802z"/>
	<path fill="#BA1937" d="M240.815,318.744c4.192,9.493,3.512,19.115-1.53,21.491c-5.045,2.384-12.539-3.368-16.74-12.858
		c-4.19-9.486-3.511-19.108,1.536-21.492C229.121,303.5,236.617,309.259,240.815,318.744z"/>
	<path fill="#BB1A37" d="M240.75,318.686c4.172,9.44,3.498,19.011-1.516,21.374c-5.018,2.373-12.47-3.346-16.651-12.782
		c-4.171-9.433-3.497-19.002,1.521-21.375C229.115,303.529,236.571,309.255,240.75,318.686z"/>
	<path fill="#BC1A37" d="M240.684,318.628c4.151,9.386,3.483,18.904-1.5,21.256c-4.988,2.361-12.402-3.321-16.563-12.705
		c-4.149-9.379-3.482-18.896,1.505-21.258C229.11,303.56,236.526,309.251,240.684,318.628z"/>
	<path fill="#BC1B37" d="M240.618,318.57c4.132,9.332,3.471,18.799-1.485,21.141c-4.959,2.351-12.333-3.299-16.474-12.629
		c-4.13-9.326-3.47-18.791,1.49-21.142C229.104,303.589,236.48,309.246,240.618,318.57z"/>
	<path fill="#BD1B37" d="M240.552,318.512c4.11,9.278,3.456,18.692-1.471,21.022c-4.931,2.34-12.265-3.275-16.385-12.553
		c-4.109-9.271-3.456-18.684,1.476-21.023C229.098,303.619,236.435,309.242,240.552,318.512z"/>
	<path fill="#BE1B38" d="M240.486,318.455c4.091,9.226,3.444,18.586-1.455,20.904c-4.902,2.328-12.197-3.252-16.296-12.477
		c-4.089-9.217-3.442-18.576,1.46-20.905C229.092,303.649,236.389,309.237,240.486,318.455z"/>
	<path fill="#BF1C38" d="M240.42,318.396c4.071,9.171,3.431,18.479-1.439,20.788c-4.874,2.315-12.128-3.229-16.208-12.399
		c-4.068-9.164-3.43-18.471,1.445-20.787C229.086,303.68,236.344,309.233,240.42,318.396z"/>
	<path fill="#BF1C38" d="M240.355,318.337c4.05,9.119,3.416,18.375-1.425,20.672c-4.846,2.307-12.061-3.205-16.119-12.321
		c-4.048-9.11-3.416-18.364,1.431-20.672C229.081,303.708,236.298,309.229,240.355,318.337z"/>
	<path fill="#C01C38" d="M240.289,318.28c4.03,9.063,3.403,18.269-1.411,20.554c-4.814,2.295-11.99-3.183-16.029-12.244
		c-4.028-9.059-3.402-18.26,1.416-20.555C229.075,303.74,236.252,309.225,240.289,318.28z"/>
	<path fill="#C11D38" d="M240.223,318.223c4.01,9.011,3.389,18.161-1.396,20.437c-4.788,2.283-11.924-3.16-15.941-12.168
		c-4.009-9.004-3.389-18.154,1.399-20.438C229.069,303.77,236.207,309.221,240.223,318.223z"/>
	<path fill="#C21D39" d="M240.157,318.164c3.99,8.959,3.375,18.057-1.38,20.32c-4.759,2.271-11.855-3.137-15.854-12.092
		c-3.986-8.95-3.375-18.049,1.386-20.32C229.063,303.798,236.162,309.216,240.157,318.164z"/>
	<path fill="#C21E39" d="M240.091,318.106c3.97,8.903,3.362,17.949-1.364,20.202c-4.73,2.262-11.787-3.112-15.765-12.016
		c-3.967-8.896-3.36-17.94,1.37-20.203C229.057,303.83,236.116,309.212,240.091,318.106z"/>
	<path fill="#C31E39" d="M240.026,318.048c3.948,8.851,3.348,17.844-1.351,20.086c-4.701,2.25-11.719-3.09-15.676-11.938
		c-3.946-8.843-3.348-17.835,1.355-20.086C229.052,303.859,236.07,309.207,240.026,318.048z"/>
	<path fill="#C41E39" d="M239.96,317.99c3.929,8.797,3.334,17.737-1.335,19.969c-4.672,2.238-11.649-3.066-15.586-11.861
		c-3.927-8.789-3.334-17.729,1.34-19.969C229.046,303.89,236.025,309.203,239.96,317.99z"/>
	<path fill="#C51F39" d="M239.894,317.933c3.909,8.742,3.32,17.631-1.32,19.852c-4.644,2.228-11.582-3.043-15.498-11.785
		c-3.906-8.734-3.32-17.623,1.325-19.852C229.04,303.919,235.979,309.199,239.894,317.933z"/>
	<path fill="#C61F3A" d="M239.828,317.875c3.888,8.689,3.308,17.524-1.305,19.733c-4.616,2.216-11.515-3.021-15.41-11.708
		c-3.886-8.682-3.307-17.518,1.31-19.734C229.034,303.949,235.934,309.194,239.828,317.875z"/>
	<path fill="#C61F3A" d="M239.762,317.816c3.866,8.637,3.293,17.419-1.29,19.617c-4.586,2.205-11.445-2.997-15.32-11.633
		c-3.866-8.627-3.293-17.41,1.295-19.616C229.028,303.979,235.888,309.19,239.762,317.816z"/>
	<path fill="#C7203A" d="M239.696,317.759c3.847,8.582,3.28,17.313-1.275,19.498c-4.558,2.195-11.377-2.973-15.231-11.555
		c-3.845-8.574-3.279-17.305,1.28-19.5C229.022,304.009,235.843,309.186,239.696,317.759z"/>
	<path fill="#C8203A" d="M239.63,317.701c3.827,8.528,3.268,17.207-1.26,19.383c-4.529,2.183-11.309-2.951-15.143-11.479
		c-3.825-8.521-3.267-17.199,1.265-19.383C229.017,304.039,235.797,309.182,239.63,317.701z"/>
	<path fill="#C9203A" d="M239.564,317.643c3.807,8.476,3.253,17.103-1.245,19.267c-4.5,2.172-11.24-2.929-15.054-11.402
		c-3.806-8.467-3.253-17.092,1.25-19.266C229.011,304.069,235.751,309.177,239.564,317.643z"/>
	<path fill="#C9213B" d="M239.499,317.585c3.787,8.422,3.239,16.994-1.229,19.146c-4.473,2.161-11.172-2.902-14.966-11.324
		c-3.784-8.412-3.239-16.986,1.234-19.148C229.005,304.1,235.706,309.173,239.499,317.585z"/>
	<path fill="#CA213B" d="M239.433,317.527c3.766,8.367,3.226,16.889-1.216,19.03c-4.442,2.149-11.104-2.882-14.877-11.248
		c-3.764-8.358-3.226-16.88,1.221-19.03C228.999,304.13,235.661,309.167,239.433,317.527z"/>
	<path fill="#CB213B" d="M239.367,317.468c3.746,8.314,3.211,16.783-1.2,18.914c-4.415,2.139-11.035-2.857-14.789-11.17
		c-3.742-8.308-3.212-16.774,1.205-18.914C228.994,304.16,235.615,309.164,239.367,317.468z"/>
	<path fill="#CC223B" d="M239.301,317.412c3.726,8.26,3.198,16.676-1.185,18.795c-4.386,2.129-10.967-2.834-14.7-11.094
		c-3.723-8.253-3.199-16.668,1.19-18.797C228.988,304.189,235.569,309.16,239.301,317.412z"/>
	<path fill="#CC223B" d="M239.235,317.354c3.705,8.207,3.185,16.569-1.169,18.679c-4.357,2.116-10.898-2.812-14.611-11.018
		c-3.703-8.199-3.185-16.563,1.175-18.68C228.982,304.22,235.524,309.155,239.235,317.354z"/>
	<path fill="#CD223C" d="M239.169,317.294c3.686,8.154,3.171,16.465-1.153,18.563c-4.329,2.104-10.83-2.788-14.522-10.94
		c-3.682-8.146-3.171-16.457,1.16-18.563C228.976,304.25,235.479,309.151,239.169,317.294z"/>
	<path fill="#CE233C" d="M239.104,317.237c3.664,8.101,3.157,16.358-1.141,18.444c-4.3,2.094-10.762-2.766-14.434-10.863
		c-3.662-8.092-3.158-16.352,1.145-18.445C228.97,304.279,235.433,309.146,239.104,317.237z"/>
	<path fill="#CF233C" d="M239.038,317.18c3.645,8.046,3.144,16.252-1.125,18.327c-4.271,2.082-10.693-2.741-14.345-10.787
		c-3.643-8.038-3.146-16.244,1.129-18.328C228.964,304.31,235.387,309.143,239.038,317.18z"/>
	<path fill="#CF233C" d="M238.972,317.121c3.624,7.994,3.13,16.146-1.109,18.211c-4.243,2.071-10.625-2.719-14.256-10.711
		c-3.622-7.983-3.13-16.138,1.115-18.211C228.958,304.339,235.342,309.138,238.972,317.121z"/>
	<path fill="#D0243C" d="M238.906,317.063c3.603,7.938,3.116,16.04-1.094,18.093c-4.214,2.061-10.558-2.693-14.167-10.633
		c-3.602-7.932-3.117-16.031,1.1-18.094C228.953,304.369,235.296,309.134,238.906,317.063z"/>
	<path fill="#D1243C" d="M238.84,317.005c3.583,7.886,3.104,15.935-1.078,17.977c-4.186,2.049-10.489-2.672-14.079-10.557
		c-3.581-7.877-3.104-15.926,1.085-17.977C228.947,304.399,235.251,309.128,238.84,317.005z"/>
	<path fill="#D2243D" d="M238.774,316.947c3.563,7.832,3.089,15.829-1.064,17.859c-4.156,2.037-10.42-2.648-13.989-10.48
		c-3.562-7.822-3.091-15.818,1.069-17.859C228.941,304.43,235.205,309.125,238.774,316.947z"/>
	<path fill="#D2253D" d="M238.709,316.89c3.542,7.777,3.075,15.723-1.049,17.74c-4.128,2.027-10.352-2.625-13.901-10.402
		c-3.541-7.77-3.076-15.713,1.055-17.742C228.935,304.46,235.16,309.121,238.709,316.89z"/>
	<path fill="#D3253D" d="M238.643,316.832c3.521,7.726,3.062,15.617-1.034,17.625c-4.099,2.016-10.284-2.603-13.813-10.326
		c-3.52-7.717-3.063-15.607,1.04-17.625C228.929,304.49,235.114,309.117,238.643,316.832z"/>
	<path fill="#D4253D" d="M238.577,316.773c3.501,7.672,3.048,15.512-1.019,17.508c-4.071,2.004-10.217-2.578-13.725-10.25
		c-3.5-7.662-3.049-15.501,1.024-17.508C228.923,304.52,235.069,309.112,238.577,316.773z"/>
	<path fill="#D5263D" d="M238.511,316.716c3.48,7.617,3.033,15.404-1.005,17.391c-4.042,1.992-10.146-2.557-13.636-10.174
		c-3.479-7.607-3.036-15.396,1.01-17.391C228.917,304.55,235.023,309.107,238.511,316.716z"/>
	<path fill="#D5263D" d="M238.445,316.658c3.461,7.563,3.021,15.299-0.989,17.272c-4.013,1.981-10.079-2.532-13.547-10.097
		c-3.459-7.556-3.021-15.289,0.995-17.273C228.912,304.58,234.978,309.104,238.445,316.658z"/>
	<path fill="#D6263E" d="M238.38,316.6c3.44,7.511,3.008,15.192-0.974,17.155c-3.984,1.972-10.011-2.51-13.458-10.02
		c-3.438-7.502-3.009-15.184,0.979-17.156C228.906,304.609,234.932,309.099,238.38,316.6z"/>
	<path fill="#D7273E" d="M238.314,316.542c3.42,7.457,2.993,15.086-0.959,17.039c-3.956,1.959-9.942-2.486-13.37-9.943
		c-3.418-7.448-2.995-15.077,0.964-17.039C228.9,304.64,234.887,309.095,238.314,316.542z"/>
	<path fill="#D8273E" d="M238.248,316.484c3.4,7.403,2.979,14.979-0.943,16.921c-3.928,1.949-9.874-2.463-13.281-9.866
		c-3.398-7.395-2.981-14.971,0.949-16.922C228.895,304.669,234.841,309.089,238.248,316.484z"/>
	<path fill="#D8273E" d="M238.182,316.425c3.379,7.351,2.966,14.875-0.93,16.806c-3.897,1.938-9.806-2.438-13.191-9.79
		c-3.378-7.341-2.969-14.863,0.934-16.805C228.889,304.701,234.795,309.085,238.182,316.425z"/>
	<path fill="#D9283E" d="M238.116,316.369c3.359,7.295,2.953,14.768-0.914,16.688c-3.87,1.926-9.737-2.417-13.104-9.713
		c-3.357-7.287-2.954-14.76,0.919-16.688C228.883,304.729,234.75,309.082,238.116,316.369z"/>
	<path fill="#DA283E" d="M238.05,316.311c3.34,7.242,2.939,14.661-0.897,16.569c-3.841,1.914-9.669-2.395-13.015-9.637
		c-3.338-7.232-2.941-14.652,0.903-16.57C228.877,304.759,234.705,309.078,238.05,316.311z"/>
	<path fill="#DB283E" d="M237.984,316.251c3.319,7.189,2.925,14.557-0.883,16.453c-3.813,1.904-9.602-2.369-12.927-9.56
		c-3.315-7.181-2.927-14.547,0.891-16.453C228.871,304.791,234.659,309.074,237.984,316.251z"/>
	<path fill="#DC293F" d="M237.919,316.194c3.298,7.136,2.911,14.45-0.869,16.336c-3.783,1.894-9.532-2.348-12.837-9.483
		c-3.296-7.125-2.914-14.439,0.874-16.334C228.865,304.82,234.613,309.068,237.919,316.194z"/>
	<path fill="#DC293F" d="M237.853,316.137c3.277,7.081,2.897,14.344-0.854,16.218c-3.755,1.882-9.464-2.322-12.749-9.404
		c-3.275-7.074-2.899-14.336,0.859-16.22C228.859,304.85,234.568,309.064,237.853,316.137z"/>
	<path fill="#DD293F" d="M237.787,316.078c3.257,7.028,2.884,14.238-0.838,16.103c-3.727,1.87-9.396-2.302-12.66-9.329
		c-3.255-7.02-2.886-14.229,0.844-16.102C228.854,304.88,234.522,309.06,237.787,316.078z"/>
	<path fill="#DE2A3F" d="M237.721,316.021c3.236,6.975,2.87,14.132-0.823,15.984c-3.698,1.859-9.328-2.277-12.571-9.254
		c-3.235-6.965-2.873-14.121,0.829-15.983C228.848,304.91,234.477,309.056,237.721,316.021z"/>
	<path fill="#DE2A3F" d="M237.655,315.962c3.217,6.922,2.857,14.025-0.809,15.867c-3.67,1.849-9.26-2.254-12.482-9.176
		c-3.215-6.912-2.86-14.017,0.814-15.867C228.842,304.939,234.431,309.05,237.655,315.962z"/>
	<path fill="#DF2A3F" d="M237.589,315.904c3.197,6.867,2.844,13.92-0.793,15.75c-3.64,1.838-9.189-2.23-12.394-9.099
		c-3.194-6.858-2.846-13.91,0.799-15.75C228.836,304.97,234.386,309.046,237.589,315.904z"/>
	<path fill="#E02B3F" d="M237.524,315.847c3.176,6.813,2.83,13.813-0.779,15.633c-3.611,1.825-9.122-2.208-12.305-9.021
		c-3.174-6.806-2.833-13.805,0.784-15.633C228.831,305,234.34,309.042,237.524,315.847z"/>
	<path fill="#E12B40" d="M237.458,315.789c3.156,6.76,2.816,13.707-0.764,15.516c-3.583,1.814-9.054-2.184-12.216-8.945
		c-3.154-6.751-2.818-13.697,0.769-15.516C228.825,305.03,234.294,309.039,237.458,315.789z"/>
	<path fill="#E12B40" d="M237.392,315.73c3.135,6.707,2.802,13.602-0.749,15.398c-3.555,1.804-8.986-2.162-12.127-8.869
		c-3.134-6.696-2.806-13.592,0.754-15.397C228.819,305.06,234.249,309.035,237.392,315.73z"/>
	<path fill="#E22C40" d="M237.326,315.673c3.115,6.652,2.789,13.494-0.733,15.281c-3.524,1.791-8.917-2.139-12.038-8.793
		c-3.113-6.644-2.792-13.486,0.738-15.281C228.813,305.089,234.204,309.029,237.326,315.673z"/>
	<path fill="#E32C40" d="M237.26,315.615c3.096,6.6,2.775,13.389-0.718,15.163c-3.497,1.781-8.849-2.114-11.95-8.715
		c-3.093-6.59-2.777-13.38,0.725-15.164C228.807,305.121,234.158,309.025,237.26,315.615z"/>
	<path fill="#E42C40" d="M237.194,315.557c3.075,6.546,2.762,13.282-0.703,15.047c-3.468,1.771-8.781-2.092-11.861-8.64
		c-3.072-6.535-2.765-13.272,0.709-15.047C228.801,305.15,234.112,309.021,237.194,315.557z"/>
	<path fill="#E52D40" d="M237.129,315.5c3.055,6.492,2.748,13.176-0.688,14.93c-3.439,1.759-8.712-2.068-11.773-8.563
		c-3.052-6.482-2.75-13.168,0.694-14.93C228.795,305.18,234.067,309.017,237.129,315.5z"/>
	<path fill="#E52D40" d="M237.063,315.441c3.034,6.438,2.733,13.07-0.673,14.813c-3.411,1.748-8.645-2.045-11.685-8.484
		c-3.032-6.43-2.736-13.063,0.679-14.813C228.79,305.21,234.021,309.013,237.063,315.441z"/>
	<path fill="#E62D41" d="M236.997,315.382c3.013,6.387,2.72,12.967-0.658,14.695c-3.382,1.736-8.575-2.021-11.595-8.408
		c-3.012-6.375-2.724-12.955,0.664-14.694C228.784,305.24,233.976,309.007,236.997,315.382z"/>
	<path fill="#E72E41" d="M236.931,315.326c2.992,6.33,2.707,12.858-0.644,14.577c-3.354,1.726-8.507-1.999-11.507-8.332
		c-2.991-6.321-2.71-12.849,0.649-14.577C228.778,305.271,233.931,309.003,236.931,315.326z"/>
	<path fill="#E82E41" d="M236.865,315.268c2.973,6.276,2.693,12.753-0.628,14.461c-3.325,1.714-8.439-1.976-11.418-8.255
		c-2.971-6.27-2.697-12.743,0.634-14.461C228.772,305.3,233.885,309,236.865,315.268z"/>
	<path fill="#E92E41" d="M236.799,315.208c2.953,6.226,2.681,12.647-0.612,14.345c-3.296,1.702-8.371-1.952-11.329-8.179
		c-2.951-6.215-2.685-12.638,0.619-14.344C228.767,305.33,233.839,308.996,236.799,315.208z"/>
	<path fill="#EA2F41" d="M236.733,315.151c2.932,6.171,2.666,12.541-0.599,14.228c-3.268,1.69-8.303-1.93-11.24-8.103
		c-2.931-6.161-2.669-12.53,0.604-14.228C228.761,305.36,233.794,308.99,236.733,315.151z"/>
	<path fill="#EB2F42" d="M236.668,315.093c2.912,6.117,2.652,12.436-0.583,14.109c-3.238,1.682-8.233-1.906-11.151-8.024
		c-2.91-6.106-2.656-12.425,0.588-14.109C228.755,305.391,233.748,308.986,236.668,315.093z"/>
	<path fill="#ED3042" d="M236.602,315.035c2.891,6.063,2.639,12.33-0.568,13.992c-3.21,1.67-8.166-1.882-11.063-7.947
		c-2.89-6.054-2.643-12.318,0.573-13.992C228.749,305.419,233.703,308.981,236.602,315.035z"/>
	<path fill="#EE3042" d="M236.536,314.978c2.871,6.01,2.625,12.223-0.553,13.875c-3.183,1.658-8.098-1.859-10.976-7.871
		c-2.868-6-2.629-12.213,0.56-13.875C228.743,305.451,233.657,308.978,236.536,314.978z"/>
</g>
<path fill="#820022" d="M277.728,216.441c0.09,42.679-26.652,92.139-59.396,111.087c-32.412,18.771-59.477,1.138-60.836-39.997
	c-1.356-42.001,24.523-93.037,58.193-113.368C249.72,153.599,277.655,172.829,277.728,216.441z M215.714,175.792
	c-32.969,19.906-58.338,69.88-57.008,111.036c1.308,40.304,27.844,57.593,59.601,39.198c31.396-18.935,58.27-67.054,58.18-108.851
	C276.388,174.485,249.032,155.664,215.714,175.792z"/>
<path fill="#820022" d="M273.444,248.62c-16.709,48.385-54.35,90.584-84.359,95.331c-29.893,4.723-41.981-29.41-26.746-77.275
	c15.632-49.089,53.961-94.043,85.351-99.284C279.183,162.125,290.575,199.016,273.444,248.62z M247.06,169.276
	c-30.734,5.13-68.277,49.134-83.588,97.209c-8.027,25.188-8.189,46.495-2.211,60.112c0.407,0.93,0.877,1.83,1.344,2.688
	c5.42,9.965,14.567,14.912,27.059,12.939c15.047-2.379,32.052-14.377,47.262-31.877c0.773-1.469,1.979-2.309,2.955-3.496
	c13.295-16.178,24.98-36.489,32.42-58.045C289.067,200.222,277.899,164.13,247.06,169.276z"/>
<path fill="#820022" d="M281.642,227.075c-7.232,46.075-39.281,93.436-71.513,106.637c-31.987,13.117-53.157-11.941-47.395-56.8
	c5.902-45.922,37.715-95.484,71.174-109.832C267.651,152.63,289.044,179.909,281.642,227.075z M233.657,168.865
	c-32.758,14.027-63.93,62.563-69.723,107.544c-5.668,43.969,15.082,68.53,46.438,55.682c31.578-12.953,62.974-59.367,70.033-104.495
	C287.644,181.409,266.683,154.721,233.657,168.865z"/>
<path fill="#820022" d="M279.763,245.024c-12.642,36.441-37.115,69.374-61.256,85.489c-0.406,0.861-1.231,1.158-1.814,1.182
	c-7.351,4.65-14.642,7.709-21.525,8.799c-29.93,4.73-41.967-29.44-26.627-77.388c15.724-49.173,54.156-94.188,85.595-99.445
	C285.665,158.392,297.005,195.332,279.763,245.024z M253.501,165.555c-30.766,5.132-68.416,49.214-83.836,97.362
	c-15.053,46.984-3.258,80.499,26.09,75.853c29.429-4.66,66.41-46.09,82.867-93.564C295.493,196.55,284.37,160.399,253.501,165.555z"
	/>
<path fill="#D31245" d="M273.144,251.644c-15.754,49.066-54.322,90.4-84.291,95.13c-29.871,4.711-41.937-29.353-26.701-77.125
	c15.615-48.985,53.92-93.837,85.272-99.056C278.888,165.337,290.267,202.141,273.144,251.644z M246.8,172.463
	c-30.711,5.118-68.207,49.029-83.524,97c-14.943,46.82-3.123,80.212,26.149,75.583c29.38-4.637,66.22-45.914,82.576-93.215
	C288.757,203.351,277.612,167.332,246.8,172.463z"/>
<path fill="#EE3042" d="M284.179,224.53c0.021,42.517-26.74,91.77-59.457,110.649c-32.359,18.684-59.365,1.109-60.646-39.844
	c-1.313-41.836,24.607-92.663,58.23-112.913C256.304,161.953,284.155,181.101,284.179,224.53z M222.329,184.046
	c-32.928,19.823-58.32,69.596-57.055,110.569c0.842,40.655,27.711,57.386,59.436,39.062c26.192-15.131,48.205-49.818,55.457-84.833
	c0.353-1.697,0.893-4.757,1.172-6.453c1.011-6.122,1.591-11.169,1.586-17.126C282.892,182.745,255.626,164.007,222.329,184.046z"/>
<path fill="#820022" d="M283.214,223.726c-0.233,42.684-27.188,91.904-59.896,110.583c-1.199,0.685-2.392,1.319-3.574,1.905
	c-0.76,0.474-1.643,0.847-2.694,1.257c-29.482,12.887-52.969-5.25-53.923-43.706c-1.045-42.023,25.088-92.834,58.722-112.872
	C255.845,160.628,283.47,180.113,283.214,223.726z M221.856,182.516c-32.935,19.612-58.547,69.383-57.525,110.555
	c0.994,40.329,27.25,57.852,58.969,39.739c32.054-18.32,58.455-66.552,58.683-108.353
	C282.204,181.761,255.149,162.693,221.856,182.516z"/>
<path fill="#820022" d="M277.794,227.993c0.072,42.413-26.594,91.563-59.244,110.407c-32.309,18.641-59.307,1.105-60.631-39.762
	c-1.099-33.965,15.232-74.049,39.644-98.625c0.807-0.811,2.326-3.157,3.147-3.935c4.879-4.613,9.881-6.884,15.234-10.105
	C249.872,165.544,277.718,184.649,277.794,227.993z M215.976,187.588c-32.869,19.779-58.177,69.438-56.851,110.334
	c1.287,40.059,27.742,57.258,59.406,38.981c8.496-4.905,16.579-11.907,23.866-20.323c0.058-0.066-0.212-0.261-0.153-0.326
	c20.053-23.267,34.362-57.113,34.299-87.531C276.456,186.305,249.196,167.601,215.976,187.588z"/>
<path fill="#820022" d="M256.561,168.911c0.993,0.169,2.284,0.482,3.23,0.751c18.34,5.191,27.566,28.869,22.25,62.717
	c-7.223,45.942-39.217,93.162-71.395,106.33c-31.943,13.074-53.088-11.914-47.334-56.652c5.883-45.779,37.649-95.212,71.057-109.5
	C242.563,169.049,250.06,167.804,256.561,168.911z M234.112,174.32c-32.707,14.004-63.828,62.387-69.605,107.231
	c-5.651,43.85,15.064,68.352,46.365,55.537c31.543-12.918,62.885-59.196,69.941-104.206
	C288.026,186.836,267.085,160.222,234.112,174.32z"/>
<path fill="#820022" d="M280.433,234.23c-6.777,45.747-38.472,93.111-70.703,106.639c-31.988,13.414-53.504-11.152-48.181-55.687
	c5.468-45.569,36.886-95.096,70.334-109.757C265.601,160.655,287.382,187.378,280.433,234.23z M231.647,177.195
	c-32.748,14.353-63.541,62.844-68.892,107.487c-5.237,43.639,15.839,67.726,47.189,54.565c31.58-13.258,62.623-59.668,69.26-104.491
	C285.987,188.891,264.659,162.732,231.647,177.195z"/>
<path fill="#820022" d="M282.711,245.362c-0.118,0.342,0.284,1.407-0.354,1.563c-0.125,0.355-0.349,0.78-0.476,1.136
	c-16.981,47.3-54.002,87.876-83.498,92.53c-29.836,4.695-41.934-29.297-26.764-76.97c15.537-48.877,53.742-93.644,85.062-98.862
	C288.103,159.52,299.76,195.956,282.711,245.362z M256.056,166.63c-30.664,5.123-68.084,48.932-83.318,96.807
	c-14.871,46.721-3.025,80.044,26.213,75.428c29.344-4.621,66.094-45.818,82.375-93.029
	C297.997,197.468,286.817,161.519,256.056,166.63z"/>
<path fill="#EE3042" d="M277.243,251.524c-16.535,49.099-54.408,90.442-84.389,95.177c-29.885,4.719-41.933-29.363-26.65-77.167
	c16.687-51.513,54.017-93.875,85.385-99.104C283.069,165.175,294.413,201.993,277.243,251.524z M250.96,172.307
	c-30.709,5.11-68.268,49.044-83.629,97.048c-14.985,46.837-3.199,80.251,26.094,75.626c29.384-4.642,66.281-45.944,82.677-93.268
	C292.913,203.207,281.784,167.167,250.96,172.307z"/>
<path fill="#D31245" d="M275.54,235.824c-7.143,45.88-39.047,93.033-71.178,106.177c-31.898,13.065-53.064-11.887-47.377-56.569
	c5.805-45.71,37.475-95.069,70.836-109.344C261.45,161.704,282.847,188.86,275.54,235.824z M227.579,177.855
	c-32.66,13.974-63.695,62.289-69.399,107.083c-5.587,43.782,15.155,68.258,46.409,55.454
	c31.492-12.898,62.742-59.116,69.718-104.048C281.456,190.355,260.487,163.78,227.579,177.855z"/>
<path fill="#820022" d="M280.144,228.43c-5.273,45.189-35.949,93.157-68.375,107.934c-32.156,14.648-54.972-8.418-51.119-52.293
	c3.932-44.898,34.195-94.911,67.774-110.898C262.31,157.057,285.544,182.172,280.144,228.43z M228.255,174.917
	c-32.889,15.645-62.545,64.613-66.401,108.587c-3.795,43.008,18.571,65.619,50.08,51.262
	c31.771-14.478,61.821-61.485,66.969-105.759C284.173,183.726,261.425,159.132,228.255,174.917z"/>
<path fill="#820022" d="M277.878,248.828c-16.77,48.368-54.457,90.546-84.473,95.292c-29.889,4.723-41.939-29.398-26.641-77.26
	c15.688-49.069,54.082-94.007,85.469-99.245C283.728,162.366,295.079,199.226,277.878,248.828z M251.603,169.507
	c-30.734,5.125-68.324,49.112-83.709,97.171c-15.004,46.902-3.217,80.344,26.098,75.715c29.406-4.656,66.33-46,82.744-93.383
	C293.565,200.44,282.444,164.365,251.603,169.507z"/>
<path fill="#820022" d="M276.397,221.125c2.615,43.758-20.515,91.982-51.385,108.501c-30.638,16.401-58.388-4.094-62.267-46.539
	c-3.975-43.438,18.422-93.688,50.334-111.408C245.247,153.812,273.728,176.324,276.397,221.125z M213.21,173.355
	c-31.248,17.358-53.19,66.551-49.321,109.106c3.795,41.602,30.979,61.688,61.006,45.625c30.25-16.198,52.899-63.455,50.334-106.317
	C272.595,177.91,244.714,155.863,213.21,173.355z"/>
<path fill="#EE3042" d="M278.604,224.05c0.344,42.691-26.619,91.784-59.32,110.673c-32.352,18.688-59.369,1.104-60.699-39.854
	c-1.354-41.844,24.504-92.689,58.104-112.944C250.663,161.449,278.532,180.61,278.604,224.05z M216.71,183.547
	c-32.905,19.831-58.233,69.62-56.916,110.609c1.277,40.157,27.765,57.39,59.476,39.054c32.02-18.512,58.17-66.79,58.094-108.426
	C277.276,182.25,249.969,163.507,216.71,183.547z"/>
<path fill="#D31245" d="M276.788,248.82c-14.715,42.468-45.549,80.176-73.155,91.949c-1.262,1.725-7.822,3.166-11.478,3.744
	c-29.9,4.723-41.738-29.801-26.459-77.645c15.664-49.063,54.023-93.989,85.406-99.224
	C282.604,162.385,293.96,199.243,276.788,248.82z M250.479,169.531c-30.724,5.118-68.301,49.102-83.666,97.16
	c-14.978,46.885-3.172,80.322,26.129,75.686c29.393-4.633,66.309-45.998,82.701-93.374
	C292.454,200.445,281.313,164.382,250.479,169.531z"/>
<path fill="#820022" d="M284.3,244.253c-3.377,9.702-7.592,19.156-12.413,28.11c-0.407,0.756-0.572,1.943-0.988,2.691
	c-1.069,1.926-3.021,8.918-3.289,5.697c-19.138,31.874-45.838,55.545-68.066,59.069c-29.961,4.734-41.961-29.473-26.557-77.458
	c15.797-49.212,54.324-94.271,85.771-99.524C290.313,157.56,301.62,194.535,284.3,244.253z M258.126,164.722
	c-30.789,5.148-68.52,49.262-84.006,97.454c-15.111,47.02-3.356,80.551,26.006,75.912c29.461-4.668,66.258-47.194,83.029-93.646
	C300.097,195.75,289.022,159.562,258.126,164.722z"/>
<path fill="#EE3042" d="M282.845,230.805c-7.066,47.104-39.326,93.637-71.603,106.883c-32.021,13.146-53.213-11.961-47.438-56.934
	c5.916-46.012,37.778-95.692,71.27-110.067C268.845,156.193,290.269,183.535,282.845,230.805z M234.831,172.461
	c-32.809,14.069-64.018,62.714-69.822,107.783c-5.678,44.073,15.087,68.702,46.47,55.811c31.623-12.988,62.864-59.918,70.143-104.74
	C288.868,185.039,267.888,158.275,234.831,172.461z"/>
<path fill="#D31245" d="M270.182,256.276c-16.627,48.175-54.53,90.218-84.452,94.933c-29.849,4.707-41.938-29.293-26.783-76.969
	c15.555-48.879,53.75-93.642,85.072-98.864C275.433,170.136,287.234,206.875,270.182,256.276z M243.397,177.257
	c-30.666,5.103-68.078,48.925-83.316,96.798c-14.875,46.721-3.031,80.047,26.213,75.438c29.332-4.638,66.082-45.832,82.363-93.038
	C285.339,208.082,273.452,172.865,243.397,177.257z"/>
<path fill="#D31245" d="M278.433,229.75c-4.267,44.712-34.195,92.923-66.677,108.439c-32.188,15.398-55.807-6.664-52.942-50.012
	c2.938-44.329,32.358-94.494,65.963-111.263C258.688,159.982,282.794,184.007,278.433,229.75z M224.644,178.62
	c-32.906,16.419-61.738,65.54-64.621,108.979c-2.83,42.477,20.313,64.105,51.865,49.004c31.832-15.219,61.146-62.454,65.301-106.248
	C279.937,186.32,257.837,162.066,224.644,178.62z"/>
<path fill="#D31245" d="M279.612,226.225c-0.517,6.727-1.498,13.668-3.129,20.46c-0.09,0.379-0.207,0.952-0.301,1.331
	c-9.347,37.576-34.529,73.67-61.877,87.312c-32.273,16.09-56.611-5.095-54.586-48.039c2.086-43.908,30.84-94.313,64.493-111.831
	C258.194,157.771,283.097,180.857,279.612,226.225z M224.122,177.339c-32.955,17.142-61.151,66.318-63.197,109.335
	c-1.995,42.09,21.845,62.861,53.476,47.085c31.922-15.926,60.654-63.461,63.973-106.903
	C281.759,182.446,256.663,160.602,224.122,177.339z"/>
<path fill="#820022" d="M283.081,220.82c-7.307,46.364-39.602,94.031-72.059,107.346c-32.205,13.221-53.501-11.978-47.672-57.129
	c4.813-37.193,25.746-76.624,51.608-98.188c0.859-0.716,2.685-3.013,4.979-3.464c5.46-4.252,9.48-6.467,15.147-8.898
	C269.049,145.919,290.584,173.347,283.081,220.82z M234.845,162.268c-33.003,14.145-64.412,62.999-70.282,108.254
	c-5.731,44.254,15.134,68.965,46.694,56.006c31.799-13.059,63.438-59.77,70.594-105.199
	C289.163,174.859,268.087,148.008,234.845,162.268z"/>
<rect x="1095.464" y="-144.49" fill="#820022" width="47" height="47"/>
<rect x="1095.464" y="-84.49" fill="#EE3042" width="47" height="47"/>
<rect x="1095.464" y="-24.49" fill="#D31245" width="47" height="47"/>
<rect x="1095.464" y="35.51" fill="#820022" width="47" height="47"/>
<rect x="1095.464" y="95.51" fill="#EE3042" width="47" height="47"/>
<rect x="1095.464" y="155.51" fill="#D31245" width="47" height="47"/>
</svg>
